<svg id="圖層_1" data-name="圖層 1" xmlns="http://www.w3.org/2000/svg" viewBox="0 0 577.83 588.84"><defs><style>.cls-1{fill:#fff;}.cls-2{opacity:0.61;}.cls-3{fill:#2d2b2c;}.cls-4{opacity:0.4;}.cls-5{fill:#d3ebeb;}</style></defs><title>剪刀石頭</title><path class="cls-1" d="M214.22,78.21c-12.52,9-17.17,26.85-5.85,28.7s9.06-9.51,16.37-14.77c6.92-5,15.52-.67,18.61-8.89S228.39,68,214.22,78.21Z"/><path class="cls-1" d="M173.77,86.46c-3.17,2.75-1.4,7,1.69,10.41s7,4.35,9.15,2.42,1.58-6.76-1.48-10.56S176.35,84.23,173.77,86.46Z"/><path class="cls-1" d="M194,73.19c2.15-1.92,1.57-6.75-1.48-10.56s-6.78-4.49-9.36-2.26c-3.17,2.74-1.4,7,1.69,10.41S191.8,75.12,194,73.19Z"/><path class="cls-1" d="M214.46,58.44c2.16-1.92,1.58-6.76-1.48-10.56s-6.77-4.49-9.35-2.26c-3.18,2.74-1.41,7,1.68,10.4S212.31,60.37,214.46,58.44Z"/><path class="cls-1" d="M239.71,48c-3.06-3.8-6.78-4.5-9.36-2.27-3.17,2.75-1.4,7,1.69,10.41s7,4.35,9.15,2.42S242.76,51.83,239.71,48Z"/><path class="cls-1" d="M109.57,355.28c-12,9.7-15.62,27.79-4.2,29s8.49-10,15.5-15.68c6.62-5.37,15.45-1.56,18.06-9.94S123.13,344.3,109.57,355.28Z"/><path class="cls-1" d="M69.66,365.83c-3,2.92-1,7.08,2.28,10.3s7.22,3.94,9.27,1.89,1.19-6.84-2.08-10.46S72.11,363.46,69.66,365.83Z"/><path class="cls-1" d="M89.05,351.43c2-2,1.19-6.84-2.08-10.45s-7-4.11-9.47-1.73c-3,2.92-1,7.07,2.28,10.29S87,353.48,89.05,351.43Z"/><path class="cls-1" d="M108.68,335.53c2-2,1.19-6.83-2.08-10.45s-7-4.11-9.47-1.73c-3,2.92-1,7.07,2.28,10.29S106.64,337.58,108.68,335.53Z"/><path class="cls-1" d="M133.29,323.7c-3.27-3.62-7-4.11-9.47-1.73-3,2.92-1,7.07,2.28,10.29s7.23,3.94,9.27,1.89S136.56,327.32,133.29,323.7Z"/><g class="cls-2"><path class="cls-1" d="M269.82,338.18c-7.62-5.54-23-15.05-29.4-10.82s-4.61,9.85-4.61,9.85-12.91-8.29-20.61-2.44c-9.53,7.22-3.93,16.42-3.93,16.42s-10.11-3.71-15.36,7c-4.24,8.7,6.39,19.76,6.39,19.76s-5.86-.55-8.76,6.43,9.4,20.35,16.3,26.74c7.61,7.05,280.29,225.39,280.29,225.39l64.42-78.39S278.2,344.28,269.82,338.18Z"/><path class="cls-3" d="M235.85,369.24c-9.5,11.56-9.43,29.46,1.65,28.38s6.13-11.18,11.68-17.93c5.25-6.39,14.39-4.49,15.24-13S246.6,356.16,235.85,369.24Z"/><path class="cls-3" d="M200,387.05c-2.29,3.36.43,6.92,4.18,9.34s7.63,2.34,9.18,0-.2-6.73-4-9.54S201.83,384.31,200,387.05Z"/><path class="cls-3" d="M215.59,369.58c1.55-2.34-.2-6.73-4-9.54s-7.48-2.53-9.34.21c-2.3,3.36.43,6.92,4.17,9.34S214.05,371.92,215.59,369.58Z"/><path class="cls-3" d="M231.16,350.64c1.54-2.34-.2-6.73-4-9.53s-7.48-2.54-9.35.2c-2.29,3.36.43,6.92,4.18,9.34S229.61,353,231.16,350.64Z"/><path class="cls-3" d="M252.25,334.59c-3.81-2.8-7.48-2.53-9.34.21-2.3,3.36.43,6.92,4.17,9.34s7.64,2.33,9.18,0S256.06,337.4,252.25,334.59Z"/><g class="cls-4"><path class="cls-1" d="M233.19,379.45c-2.11,7.41,0,12.92,3.31,12.6s.07-7.69,2.18-11.89c2-3.94,6.06-9.6,4.73-11.3C241.19,366,235.46,371.44,233.19,379.45Z"/><path class="cls-1" d="M201.64,388c-1.24,1.36.55,3.33,1.84,4.55,1.07,1,2.76,2.31,3.78,1.38s-.56-2.53-1.37-3.7S202.66,386.84,201.64,388Z"/><path class="cls-1" d="M208.89,366.48c1-.93-.56-2.53-1.37-3.7s-3.23-3.33-4.25-2.22c-1.25,1.36.55,3.33,1.84,4.54C206.18,366.11,207.87,367.42,208.89,366.48Z"/><path class="cls-1" d="M219.15,341.71c-1.25,1.35.54,3.33,1.83,4.54,1.07,1,2.76,2.31,3.78,1.38s-.56-2.53-1.37-3.7S220.16,340.59,219.15,341.71Z"/><path class="cls-1" d="M244.81,334.82c-1.25,1.36.54,3.33,1.83,4.54,1.07,1,2.76,2.32,3.78,1.38s-.56-2.52-1.37-3.7S245.82,333.71,244.81,334.82Z"/></g></g><g class="cls-2"><path class="cls-5" d="M261.56,154.14c-7.61-5.54-23.05-15-29.4-10.82s-4.61,9.85-4.61,9.85-12.91-8.29-20.61-2.44C197.41,158,203,167.15,203,167.15s-10.11-3.71-15.35,7c-4.25,8.7,6.38,19.76,6.38,19.76s-5.86-.55-8.76,6.43,9.4,20.34,16.31,26.74c7.61,7,309.73,254.35,309.73,254.35l64.42-78.38S269.94,160.24,261.56,154.14Z"/><path class="cls-3" d="M227.59,185.2c-9.5,11.56-9.43,29.46,1.66,28.38s6.12-11.18,11.67-17.93c5.26-6.39,14.39-4.49,15.24-13S238.34,172.12,227.59,185.2Z"/><path class="cls-3" d="M191.7,203c-2.29,3.36.43,6.92,4.18,9.34s7.64,2.34,9.18,0-.2-6.73-4-9.54S193.57,200.27,191.7,203Z"/><path class="cls-3" d="M207.34,185.54c1.54-2.34-.21-6.73-4-9.54s-7.47-2.53-9.34.21c-2.29,3.36.43,6.92,4.17,9.34S205.79,187.88,207.34,185.54Z"/><path class="cls-3" d="M222.9,166.6c1.54-2.34-.2-6.73-4-9.54s-7.48-2.53-9.34.21c-2.3,3.36.42,6.92,4.17,9.34S221.36,169,222.9,166.6Z"/><path class="cls-3" d="M244,150.55c-3.81-2.8-7.48-2.53-9.34.21-2.3,3.36.43,6.92,4.17,9.34s7.64,2.33,9.18,0S247.8,153.36,244,150.55Z"/><g class="cls-4"><path class="cls-1" d="M224.93,195.41c-2.11,7.41,0,12.92,3.32,12.6s.06-7.69,2.17-11.89c2-3.94,6.06-9.6,4.73-11.3C232.93,182,227.2,187.41,224.93,195.41Z"/><path class="cls-1" d="M193.38,203.91c-1.24,1.36.55,3.33,1.84,4.55,1.07,1,2.76,2.31,3.78,1.38s-.56-2.53-1.37-3.7S194.4,202.8,193.38,203.91Z"/><path class="cls-1" d="M200.63,182.44c1-.93-.56-2.53-1.37-3.7s-3.23-3.33-4.25-2.22c-1.24,1.36.55,3.33,1.84,4.54C197.92,182.07,199.61,183.38,200.63,182.44Z"/><path class="cls-1" d="M210.89,157.67c-1.25,1.35.54,3.33,1.83,4.54,1.08,1,2.76,2.31,3.78,1.38s-.56-2.53-1.37-3.7S211.91,156.55,210.89,157.67Z"/><path class="cls-1" d="M236.55,150.78c-1.25,1.36.54,3.33,1.83,4.54,1.08,1,2.76,2.32,3.78,1.38s-.56-2.52-1.37-3.7S237.57,149.67,236.55,150.78Z"/></g></g></svg>