<svg id="圖層_1" data-name="圖層 1" xmlns="http://www.w3.org/2000/svg" viewBox="0 0 100 100"><defs><style>.cls-1{fill:none;}.cls-2{fill:#040000;}</style></defs><title>商品管理</title><path class="cls-1" d="M69,26.87l.77.41Z"/><path class="cls-1" d="M51,22.46a37.54,37.54,0,0,0-6.84.65A37.54,37.54,0,0,1,51,22.46Z"/><path class="cls-1" d="M38.39,24.61a41.66,41.66,0,0,1,4.69-1.29A41.66,41.66,0,0,0,38.39,24.61Z"/><path class="cls-1" d="M69.79,27.28c.68.38,1.35.77,2,1.18C71.14,28.05,70.47,27.66,69.79,27.28Z"/><path class="cls-1" d="M79.65,35.51l.15.21Z"/><path class="cls-1" d="M75,30.75c.63.5,1.22,1,1.78,1.55C76.19,31.77,75.6,31.25,75,30.75Z"/><path class="cls-1" d="M73.17,29.39l.72.52Z"/><path class="cls-1" d="M24.11,48.58v0Z"/><path class="cls-1" d="M80.24,36.33q.29.41.54.81Q80.53,36.74,80.24,36.33Z"/><path class="cls-1" d="M39,70.52l-1.09-.39Z"/><path class="cls-1" d="M46.66,72.21l-.41,0Z"/><path class="cls-1" d="M45,72l-.61-.11Z"/><path class="cls-1" d="M42.35,71.47l-.56-.14Z"/><path class="cls-1" d="M64.36,27.16c.9.35,1.79.74,2.64,1.16C66.15,27.9,65.26,27.51,64.36,27.16Z"/><path class="cls-1" d="M25.1,61c-.26-.33-.5-.67-.74-1C24.6,60.37,24.84,60.71,25.1,61Z"/><path class="cls-1" d="M26.31,62.47c-.29-.31-.56-.63-.82-.95C25.75,61.84,26,62.16,26.31,62.47Z"/><path class="cls-1" d="M72.06,31.43l.75.59Z"/><path class="cls-1" d="M71.86,65.9a29.67,29.67,0,0,1-4.54,2.79A29.67,29.67,0,0,0,71.86,65.9Z"/><path class="cls-1" d="M81,37.46c.13.21.25.42.37.63C81.22,37.88,81.1,37.67,81,37.46Z"/><path class="cls-1" d="M69.5,29.69c.39.23.76.47,1.14.72C70.26,30.16,69.89,29.92,69.5,29.69Z"/><path class="cls-1" d="M74.33,63.83c-.47.44-1,.86-1.45,1.27C73.38,64.69,73.86,64.27,74.33,63.83Z"/><path class="cls-1" d="M73,32.15c.48.4.94.8,1.38,1.22C73.91,33,73.45,32.55,73,32.15Z"/><path class="cls-1" d="M80.52,54c-.14.47-.3.94-.48,1.4C80.22,54.94,80.38,54.47,80.52,54Z"/><path class="cls-1" d="M24.36,60c-.23-.34-.46-.69-.67-1C23.9,59.35,24.13,59.7,24.36,60Z"/><path class="cls-1" d="M31.45,62.58l-.52-.43Z"/><path class="cls-1" d="M35.87,65.45l-.57-.3Z"/><path class="cls-1" d="M35.93,46l.56-.28Z"/><path class="cls-1" d="M25.82,55.73c.12.25.25.49.38.73-.13-.24-.26-.48-.38-.73Z"/><path class="cls-1" d="M37.45,66.21l-.1,0Z"/><path class="cls-1" d="M31.83,48.57c.23-.18.47-.36.72-.53C32.3,48.21,32.06,48.39,31.83,48.57Z"/><path class="cls-1" d="M27.55,58.56q-.5-.68-.93-1.38Q27.06,57.89,27.55,58.56Z"/><path class="cls-1" d="M76.14,55.73h0c-.18.37-.37.73-.58,1.09C75.77,56.46,76,56.1,76.14,55.73Z"/><path class="cls-1" d="M74.11,59c-.23.3-.47.6-.72.89C73.64,59.55,73.88,59.25,74.11,59Z"/><path class="cls-1" d="M77.85,48.58h0v0Z"/><path class="cls-1" d="M57,68.48l-.84.14Z"/><path class="cls-1" d="M38.45,66.63l-.34-.14Z"/><path class="cls-1" d="M44.23,68.34c-.45-.09-.9-.18-1.33-.29C43.33,68.16,43.78,68.25,44.23,68.34Z"/><path class="cls-1" d="M68.11,28.89l.85.47Z"/><path class="cls-1" d="M82.19,39.86l.09.23Z"/><path class="cls-1" d="M81.73,38.84l.18.38Z"/><path class="cls-1" d="M60.46,25.9c1.16.3,2.29.66,3.38,1.06C62.75,26.56,61.62,26.2,60.46,25.9Z"/><path class="cls-1" d="M51,24.71h0a38.23,38.23,0,0,1,7.73.78A38.23,38.23,0,0,0,51,24.71Z"/><path class="cls-1" d="M37.59,24.9l.8-.29Z"/><path class="cls-1" d="M29.39,36.44l-.13.14.13-.14Z"/><path class="cls-1" d="M61.32,71l-.92.24.92-.24.09,0,.43-.13-.43.13Z"/><path class="cls-1" d="M27.55,58.56l.06.08c.23.31.47.62.72.91-.25-.29-.49-.6-.72-.91Z"/><path class="cls-1" d="M29.85,61.17l.17.17.45.41L30,61.34Z"/><path class="cls-1" d="M28.21,70a1.23,1.23,0,0,0,0-.2A1.23,1.23,0,0,1,28.21,70Z"/><path class="cls-1" d="M51,28.17h0a34.16,34.16,0,0,0-9.4,1.29h0A34.16,34.16,0,0,1,51,28.17Z"/><path class="cls-1" d="M34.47,66.66,35,67l-.52-.28Z"/><path class="cls-1" d="M20.39,66a29.86,29.86,0,0,0,5.05,5,1.68,1.68,0,0,0,.38.23,1.68,1.68,0,0,1-.38-.23A29.86,29.86,0,0,1,20.39,66Z"/><polygon class="cls-1" points="18.92 60.12 18.92 60.12 26.51 69.65 26.51 69.65 18.92 60.12"/><path class="cls-1" d="M57.3,68.42c.59-.11,1.18-.23,1.76-.37h0C58.48,68.19,57.89,68.31,57.3,68.42Z"/><path class="cls-1" d="M75.78,59.61a20.17,20.17,0,0,0,2-3.37,20.21,20.21,0,0,1-2,3.35Z"/><path class="cls-1" d="M67.49,64.67l.58-.35c.37-.23.74-.47,1.09-.72-.35.25-.72.49-1.09.72Z"/><path class="cls-1" d="M81.31,48.58A18.9,18.9,0,0,1,80.52,54a18.9,18.9,0,0,0,.79-5.42,21,21,0,0,0-6.92-15.17A21,21,0,0,1,81.31,48.58Z"/><path class="cls-1" d="M60.36,67.71l.41-.12.22-.07-.22.07Z"/><path class="cls-1" d="M70.22,62.81l.27-.21.29-.23-.29.23Z"/><path class="cls-1" d="M23.39,64.2l.3.37Z"/><path class="cls-1" d="M71.93,61.35,72.3,61c.34-.34.68-.69,1-1.05-.32.36-.66.71-1,1.06Z"/><path class="cls-1" d="M79.49,56.74c.05-.11.1-.21.14-.31a.49.49,0,0,0,0-.11.49.49,0,0,1,0,.11C79.59,56.53,79.54,56.63,79.49,56.74Z"/><path class="cls-1" d="M74.35,58.65a.61.61,0,0,1,.07-.1l.24-.34-.24.34A.61.61,0,0,0,74.35,58.65Z"/><path class="cls-1" d="M52.87,68.94l.39,0q.7,0,1.41-.12-.7.08-1.41.12Z"/><path class="cls-1" d="M24.52,65.5l0,0Z"/><path class="cls-1" d="M24.9,65.9l.2.2Z"/><path class="cls-1" d="M33.9,64.33c.18.12.37.22.55.33l.85.49-.85-.49C34.27,64.55,34.08,64.45,33.9,64.33Z"/><path class="cls-1" d="M25.3,66.29l.3.3Z"/><path class="cls-1" d="M31.45,62.58l.8.62.18.13-.18-.13Z"/><path class="cls-1" d="M48.7,68.92l.39,0L50,69l-.95,0Z"/><path class="cls-1" d="M41.18,67.58l-.38-.11L40,67.21l.79.26.38.11c.52.16,1,.3,1.57.43l.15,0-.15,0C42.22,67.88,41.7,67.74,41.18,67.58Z"/><path class="cls-1" d="M73.3,62.43l0,0-.6.56Z"/><path class="cls-1" d="M33.53,72l.87.41Z"/><path class="cls-1" d="M27.7,61.44l0,0,.29.31h0c-.21-.21-.42-.43-.62-.66h0Z"/><path class="cls-1" d="M30.77,70.66a1.21,1.21,0,0,1,.33.07A1.21,1.21,0,0,0,30.77,70.66Z"/><path class="cls-1" d="M31.66,71l-.24-.13a1.83,1.83,0,0,0-.32-.14,1.83,1.83,0,0,1,.32.14Z"/><path class="cls-1" d="M79.12,34.84a26.65,26.65,0,0,0-2.37-2.54A26.65,26.65,0,0,1,79.12,34.84Z"/><path class="cls-1" d="M28.05,61.81l0,0Z"/><path class="cls-1" d="M33.44,75.77l-1.19-.56Z"/><path class="cls-1" d="M32.26,65.31l0,0c-.37-.25-.74-.5-1.09-.76h0C31.55,64.83,31.9,65.07,32.26,65.31Z"/><path class="cls-1" d="M28.33,62.1h0l-.28-.29.08.08Z"/><path class="cls-1" d="M34.85,72.61l-.45-.21.45.21a1.72,1.72,0,0,1,1,1.61A1.71,1.71,0,0,0,34.85,72.61Z"/><polygon class="cls-1" points="32.94 73.58 34.14 74.19 34.14 74.19 32.94 73.58"/><path class="cls-1" d="M30.56,72.37l.84.47-.84-.47Z"/><path class="cls-1" d="M55.71,72.16,57,72l.15,0L57,72Z"/><path class="cls-1" d="M28.66,62.42l-.32-.32h0Z"/><path class="cls-1" d="M50.91,72.45h0Z"/><path class="cls-1" d="M74.27,61.43l0-.06Z"/><path class="cls-1" d="M54.33,72.31l-.57,0,.57,0,.85-.09c.18,0,.36,0,.53-.06-.17,0-.35,0-.53.06Z"/><path class="cls-1" d="M73.32,62.4h0q.68-.64,1.29-1.35l0,0C74.18,61.54,73.76,62,73.32,62.4Z"/><polygon class="cls-1" points="27.4 61.11 27.4 61.11 27.4 61.11 27.4 61.11"/><path class="cls-1" d="M47.21,72.27l.41,0h0Z"/><path class="cls-1" d="M39,70.52l.25.08.21.07-.21-.07Z"/><path class="cls-1" d="M58.28,71.75l-.37.07.37-.07.6-.12.75-.17-.75.17Z"/><path class="cls-1" d="M29.3,63v0L29,62.72Z"/><path class="cls-1" d="M26.74,62.93a29.86,29.86,0,0,0,11,7.14l.15.06-.15-.06A29.86,29.86,0,0,1,26.74,62.93Z"/><path class="cls-1" d="M26.09,71.33a1.43,1.43,0,0,1-.27-.09A1.43,1.43,0,0,0,26.09,71.33Z"/><path class="cls-2" d="M76.28,77.53a22.52,22.52,0,0,1-.91-2.12c.71-.21,1.73-.4,2.56-.55A32.17,32.17,0,0,0,84.83,73a9.21,9.21,0,0,0,5.52-6.2A11.3,11.3,0,0,0,88,57.18c-5.14-6.5-14.26-3.43-17.74-1.92-8.38-6.59-27.28-21.75-30.28-25.54l0,0c-.77-1-.55-2,.21-4.45,1.1-3.53,2.76-8.87-4-14.58a11.73,11.73,0,0,0-13.78-1c-3.62,2.39-4.93,6.57-3.51,11.19a15.34,15.34,0,0,1,.66,3.31c-1.54,1.19-3.16,1.36-5,1.54-3,.29-6.83.66-9,6.15a2.24,2.24,0,0,0-.11.34A12.32,12.32,0,0,0,7.57,42.81a13.69,13.69,0,0,0,1.6,1.74c3.16,2.9,7.66,4.31,10.69,3.33a45.4,45.4,0,0,1,5.54-1.41l.45.35c23.09,18.64,29.26,24.9,30.88,27v0c-1.55,9.21,1,16.09,7.1,18.93,3.06,1.43,6.81.42,9.8-2.63S78.53,82.08,76.28,77.53ZM65.79,88.59c-4.22-2-5.81-7.38-4.36-14.82a2.35,2.35,0,0,0-.24-1.56c-.69-1.24-2.77-5-32.45-29l-1.2-1a2.32,2.32,0,0,0-1.79-.53,46.52,46.52,0,0,0-7.3,1.76c-1.09.35-3.92-.28-6.17-2.34A7.85,7.85,0,0,1,9.83,33.4c1.15-2.73,2.5-2.86,5.13-3.12a21.18,21.18,0,0,0,3.38-.53A5.13,5.13,0,0,1,17.22,31a2.29,2.29,0,0,0-.6,3.18l.09.12a2.3,2.3,0,0,0,3.1.5c.28-.18,6.74-4.68,3.46-15.34-.82-2.67-.25-4.74,1.64-6a7.22,7.22,0,0,1,8.27.66c4.41,3.74,3.59,6.37,2.55,9.7-.79,2.52-1.76,5.65.54,8.64l.06.07c4.05,5.12,29.3,24.94,32.17,27.18A2.28,2.28,0,0,0,71,60c.1,0,9.46-4.85,13.35.06a6.69,6.69,0,0,1,1.53,5.61A4.63,4.63,0,0,1,83,68.75a28,28,0,0,1-6,1.58c-.94.18-1.86.35-2.72.58a8,8,0,0,1,.12-2.2,2.3,2.3,0,0,0-4.43-1.25,14.42,14.42,0,0,0,.22,7,2.28,2.28,0,0,0,.56,1.9,26,26,0,0,0,1.32,3.2c1.25,2.53,0,5.51-1.8,7.34C68.82,88.47,67,89.15,65.79,88.59Z"/></svg>