<svg xmlns="http://www.w3.org/2000/svg" viewBox="0 0 9.99 9.99"><defs><style>.a{fill:#ffc845;}.b{fill:none;stroke:#fff;stroke-linecap:round;stroke-linejoin:round;stroke-width:0.5px;}</style></defs><title>icon-order-list-w</title><rect class="a" width="9.99" height="9.99" rx="1.02"/><path class="b" d="M1.58,9V1A.26.26,0,0,1,1.83.72h5A.25.25,0,0,1,7,.8L8.34,2.14a.26.26,0,0,1,.07.18V9a.26.26,0,0,1-.25.26H1.83A.26.26,0,0,1,1.58,9Z"/><path class="b" d="M6.7,2.18V.87A.15.15,0,0,1,6.85.72.16.16,0,0,1,7,.77l1.41,1.4a.15.15,0,0,1,0,.11.15.15,0,0,1-.15.15H7A.26.26,0,0,1,6.7,2.18Z"/><path class="b" d="M3.29,4.14H6.7"/><path class="b" d="M3.29,7.56H6.7"/><path class="b" d="M3.29,5.85H5"/></svg>