<svg xmlns="http://www.w3.org/2000/svg" viewBox="0 0 7.33 9.04"><defs><style>.a{fill:none;stroke:#fff;stroke-linecap:round;stroke-linejoin:round;stroke-width:0.5px;}</style></defs><title>icon-order-list-w</title><path class="a" d="M1.29,9V1A.26.26,0,0,1,1.54.72h5A.25.25,0,0,1,6.7.8L8.05,2.14a.31.31,0,0,1,.07.18V9a.26.26,0,0,1-.26.26H1.54A.26.26,0,0,1,1.29,9Z" transform="translate(-1.04 -0.47)"/><path class="a" d="M6.41,2.18V.87A.15.15,0,0,1,6.56.72a.16.16,0,0,1,.11.05l1.41,1.4a.15.15,0,0,1,0,.11A.15.15,0,0,1,8,2.43H6.67A.26.26,0,0,1,6.41,2.18Z" transform="translate(-1.04 -0.47)"/><path class="a" d="M3,4.14H6.41" transform="translate(-1.04 -0.47)"/><path class="a" d="M3,7.56H6.41" transform="translate(-1.04 -0.47)"/><path class="a" d="M3,5.85H4.7" transform="translate(-1.04 -0.47)"/></svg>