<svg xmlns="http://www.w3.org/2000/svg" viewBox="0 0 9.99 9.99"><defs><style>.a{fill:none;}.b,.c{fill:#f5c149;}.b{stroke:#f5c149;stroke-miterlimit:10;stroke-width:0.25px;}</style></defs><title>icon-message</title><rect class="a" width="9.99" height="9.99"/><path class="b" d="M.75,5a4,4,0,0,0,6,3.52l1,.26,1,.25-.26-1-.24-.91A4,4,0,0,0,8.82,5,4,4,0,1,0,.75,5Zm.38,0A3.66,3.66,0,1,1,7.87,7l-.09.14,0,.16.25.91.08.33-.32-.09-1-.26-.15,0-.13.07A3.66,3.66,0,0,1,1.13,5Z" transform="translate(-0.01 -0.01)"/><path class="c" d="M3.56,6.13C3.47,6.88,4,7,4.78,7S6.1,6.88,6,6.13,5.36,4.75,4.78,4.75,3.64,5.47,3.56,6.13Z" transform="translate(-0.01 -0.01)"/><path class="c" d="M4.2,4.55a.74.74,0,0,0,.45-.88.67.67,0,0,0-.75-.58A.73.73,0,0,0,3.45,4,.67.67,0,0,0,4.2,4.55Z" transform="translate(-0.01 -0.01)"/><ellipse class="c" cx="3.13" cy="4.98" rx="0.57" ry="0.65" transform="translate(-1.7 1.61) rotate(-22.95)"/><ellipse class="c" cx="5.52" cy="3.82" rx="0.75" ry="0.61" transform="translate(1.03 8.81) rotate(-82.82)"/><path class="c" d="M5.93,4.71a.64.64,0,0,0,.22.85.59.59,0,0,0,.79-.31.62.62,0,0,0-.21-.85A.6.6,0,0,0,5.93,4.71Z" transform="translate(-0.01 -0.01)"/></svg>