<svg xmlns="http://www.w3.org/2000/svg" viewBox="0 0 8.42 8.42"><defs><style>.a{fill:none;stroke:#ffc845;stroke-linecap:round;stroke-linejoin:round;stroke-width:0.5px;}</style></defs><title>icon-order-list-y</title><path class="a" d="M4.67,4.89H6.86" transform="translate(-0.46 -1.12)"/><path class="a" d="M4.67,3.13H6.86" transform="translate(-0.46 -1.12)"/><path class="a" d="M2.91,6.65v-5a.26.26,0,0,1,.26-.27H8.36a.26.26,0,0,1,.26.27V7.53A1.76,1.76,0,0,1,6.86,9.29h0" transform="translate(-0.46 -1.12)"/><path class="a" d="M1.59,6.65H4.84a.28.28,0,0,1,.28.26c0,.67.33,2.38,1.74,2.38H2A1.32,1.32,0,0,1,.71,8V7.53A.88.88,0,0,1,1.59,6.65Z" transform="translate(-0.46 -1.12)"/></svg>