<svg id="圖層_1" data-name="圖層 1" xmlns="http://www.w3.org/2000/svg" viewBox="0 0 100 100"><defs><style>.cls-1,.cls-2{fill:#040000;}.cls-1{stroke:#231815;stroke-miterlimit:10;}</style></defs><title>訊息管理</title><path class="cls-1" d="M4,50A46.05,46.05,0,0,0,72.58,90.13l11,3,11,3-3-11L88.86,74.7A46,46,0,1,0,4,50ZM8.3,50A41.7,41.7,0,1,1,85.2,72.37l-1,1.61.5,1.85,2.77,10.33,1,3.74-3.75-1-11-3L72,85.47l-1.55.88A41.71,41.71,0,0,1,8.3,50Z"/><path class="cls-2" d="M36.06,62.54C35,71.17,41.48,72.3,50,72.3s15-1.13,13.94-9.76C63,55.07,56.61,46.87,50,46.87S37,55.07,36.06,62.54Z"/><path class="cls-2" d="M43.37,44.5c3.75-1,6-5.44,5.05-10s-4.8-7.54-8.56-6.59-6,5.43-5,10S39.61,45.44,43.37,44.5Z"/><ellipse class="cls-2" cx="31.12" cy="49.44" rx="6.52" ry="7.4" transform="translate(-16.81 16.05) rotate(-22.95)"/><ellipse class="cls-2" cx="58.39" cy="36.19" rx="8.51" ry="7" transform="translate(15.19 89.59) rotate(-82.82)"/><path class="cls-2" d="M63.12,46.37c-1.85,3.64-.77,8,2.41,9.66s7.26.12,9.11-3.52.77-8-2.41-9.66S65,42.73,63.12,46.37Z"/></svg>