<svg id="圖層_1" data-name="圖層 1" xmlns="http://www.w3.org/2000/svg" viewBox="0 0 100 100"><defs><style>.cls-1,.cls-2{fill:none;}.cls-1,.cls-2,.cls-3,.cls-4,.cls-5,.cls-6{stroke:#231815;stroke-miterlimit:10;}.cls-2,.cls-3,.cls-4,.cls-5,.cls-6{stroke-width:0.5px;}.cls-3{fill:#fff;}.cls-4{fill:#fae7d9;}.cls-5{fill:#e6b169;}.cls-6{fill:#040000;}</style></defs><title>登出</title><path class="cls-1" d="M48.55,56.88l-.11-.08Z"/><path class="cls-1" d="M48.83,57.05,48.71,57Z"/><path class="cls-1" d="M48.66,57l-.11-.07Z"/><path class="cls-1" d="M48.34,56.73l-.1-.08Z"/><path class="cls-1" d="M48,56.49,48,56.41Z"/><path class="cls-1" d="M49.61,57.45l-.25-.11Z"/><path class="cls-1" d="M49.36,57.34l-.13-.06Z"/><path class="cls-1" d="M49.23,57.28l-.17-.09Z"/><path class="cls-1" d="M49.68,55.83Z"/><path class="cls-2" d="M47.71,62l0-.06c-.86,0-1.61,0-2.22-.1l0,0A10.13,10.13,0,0,0,42.6,65.4h.73c1.84,0,3.58.07,5.26.07,2.21,0,4.46,0,6.63-.13a4.43,4.43,0,0,1,.38-.49,7.56,7.56,0,0,0-1.72-2,4.44,4.44,0,0,1-2.67,1,4.23,4.23,0,0,1-.7-.06A4.47,4.47,0,0,1,47.71,62Z"/><path class="cls-3" d="M41.78,17.67l.31-.07c0-.24,0-.5,0-.78l-.09,0a6.74,6.74,0,0,0-2.34-.51,9.29,9.29,0,0,0,.43,2A11.83,11.83,0,0,1,41.78,17.67Z"/><path class="cls-4" d="M23.3,74.89c6.47,3.49,17.86,3.8,26.27,3.45S69.28,77,76,74.37c3.78-1.48,4.37-2.84,4.43-3s0-2.33-3-4.66c-2.8-2.19-4.08-2-5.21-1.89a4.78,4.78,0,0,1-.53.06c-.18,0-4.37.46-10,.82-.5.69-1,1.43-1.18,1.77a5,5,0,0,0,1.77,1.39,2.5,2.5,0,0,1,1.32,1.06.69.69,0,0,1,.56-.21c.34,0,.61.15.61.33s-.27.33-.61.33a.9.9,0,0,1-.42-.1,3,3,0,0,1,.05.66,2.1,2.1,0,0,1-2.08,1.86,2.9,2.9,0,0,1-1.36-.39c-1.95-1-4.95-3.57-5.45-4.83a2,2,0,0,1,0-1.54c-2.07.08-4.19.12-6.28.12-1.69,0-3.43,0-5.27-.06l-1,0a1,1,0,0,0-.05.59c.6.35,1.59.92,1.27,2.09a9.6,9.6,0,0,1-2.49,3.72,3.18,3.18,0,0,1-2.27,1.15h-.06a2.88,2.88,0,0,1-1.59-.51,1.68,1.68,0,0,1-.65-1.35,1.91,1.91,0,0,1,.78-1.55,7.13,7.13,0,0,0,1.52-2,14.28,14.28,0,0,0-1.3-1.1c-.42-.34-.87-.7-1.3-1.09-7.72.08-14.85.85-17,4.64C19.33,71.11,19.92,73.06,23.3,74.89ZM68.85,71.4c0,.18-.27.33-.61.33s-.6-.15-.6-.33.27-.33.6-.33S68.85,71.21,68.85,71.4Zm-1.69-2c.34,0,.61.14.61.33s-.27.33-.61.33-.6-.15-.6-.33S66.83,69.41,67.16,69.41Zm-1.94,2c.34,0,.61.15.61.33s-.27.33-.61.33-.6-.15-.6-.33S64.89,71.37,65.22,71.37ZM34.1,73.09c0,.18-.27.33-.61.33s-.6-.15-.6-.33.27-.33.6-.33S34.1,72.91,34.1,73.09ZM33,70.73c.33,0,.6.15.6.34s-.27.33-.6.33-.6-.15-.6-.33S32.68,70.73,33,70.73Zm-1.93,2.18c0,.18-.27.33-.6.33s-.61-.15-.61-.33.27-.33.61-.33S31.08,72.72,31.08,72.91ZM30,70.55c.34,0,.61.15.61.33s-.27.34-.61.34-.6-.15-.6-.34S29.66,70.55,30,70.55Z"/><path class="cls-3" d="M64.89,51.42c-1.67-.14-3.25,1.6-4.78,3.34A21.81,21.81,0,0,1,62,56.34a15.5,15.5,0,0,1,3.45-2.62,1.35,1.35,0,0,0,.81-1.39A1.33,1.33,0,0,0,64.89,51.42Z"/><path class="cls-3" d="M80.9,71.89c-.54.91-2.71,3.19-11.27,5q-2.31.48-5.26.9c-3.93.55-8.78,1-14.77,1.25-1.9.08-3.71.12-5.45.12a81.75,81.75,0,0,1-10.33-.59,46.9,46.9,0,0,1-4.9-.89,24.48,24.48,0,0,1-6.06-2.24A9.2,9.2,0,0,1,19,71.92a2.86,2.86,0,0,0,0,.48v0h0s.33,2.25,4.2,4.31a22.57,22.57,0,0,0,3.92,1.58c.68.2,1.38.39,2.09.56l1.16.25.62.12.81.14c.49.09,1,.17,1.51.24h.07l.8.1h.08l.35,0a96.56,96.56,0,0,0,15,.4C55.35,80,60.08,79.51,64,79l.62-.09.81-.12.93-.15.73-.13c.65-.11,1.27-.23,1.87-.35H69l.72-.15.33-.07,1-.23c6.29-1.49,8.73-3.22,9.65-4.19A1.38,1.38,0,0,0,81,72.26C81,72.15,80.94,72,80.9,71.89Z"/><path class="cls-3" d="M51.88,61.56a25.32,25.32,0,0,1-3.38.33,3.87,3.87,0,0,0,2.13,1.24,3.59,3.59,0,0,0,2.7-.68,10.66,10.66,0,0,0-1.41-.86Z"/><path class="cls-5" d="M33.9,80.41l-.12,0Q32.34,80.21,31,80a2.56,2.56,0,0,0-1.44,2.3,2.46,2.46,0,0,0,.11.72,2.42,2.42,0,0,0,.32.69l0,0a3.09,3.09,0,0,0,.33.39,2.55,2.55,0,0,0,4.34-1.83,2.46,2.46,0,0,0-.18-.94A2.5,2.5,0,0,0,33.9,80.41Zm-1.76,2.87a1,1,0,0,1,0-2,1,1,0,1,1,0,2Z"/><path class="cls-5" d="M70.09,79a2.74,2.74,0,0,0-.46-.29c-.95.2-1.95.39-3,.56a2.52,2.52,0,0,0-.58,2.47,2.59,2.59,0,0,0,.67,1.11A2.56,2.56,0,0,0,71.07,81a2.41,2.41,0,0,0-.18-.93A2.46,2.46,0,0,0,70.09,79Zm-1.58,3a1,1,0,1,1,1-1A1,1,0,0,1,68.51,82Z"/><path class="cls-3" d="M28.71,49.26a1.93,1.93,0,0,0,2-.29,2.67,2.67,0,0,0,.56-2.28.34.34,0,0,1,0-.24,14,14,0,0,1,8.32-5.78c0-.88,0-1.44,0-1.46a.33.33,0,0,1,.32-.35.33.33,0,0,1,.35.32c0,.48.53,11.77-.47,15.18a.36.36,0,0,1-.12.18s-5.15,3.87-5,7.45a4.1,4.1,0,0,0,.56,1.89,6.24,6.24,0,0,0,1.2,1.47,9.58,9.58,0,0,0,.76.67c.23.2.47.38.7.57a11.86,11.86,0,0,1,1.54,1.35.35.35,0,0,1,0,.38,8.32,8.32,0,0,1-1.82,2.43,1.21,1.21,0,0,0-.51,1,1,1,0,0,0,.37.81,2.27,2.27,0,0,0,3-.55,9.17,9.17,0,0,0,2.33-3.43c.17-.63-.27-.94-1-1.34a.72.72,0,0,1-.34-.61,2.4,2.4,0,0,1,0-.57,5.62,5.62,0,0,1,.21-.67,8.86,8.86,0,0,1,1-1.72,12.17,12.17,0,0,1,1.74-2c-.44-.06-.71-.11-.75-.12a.34.34,0,0,1,.14-.66,23.89,23.89,0,0,0,9-.23.34.34,0,0,1,.14.66l-.12,0a10,10,0,0,1,2.88,2.54,7.31,7.31,0,0,1,.52.84.35.35,0,0,1-.05.38l-.16.18a3.46,3.46,0,0,0-.49.7,1.49,1.49,0,0,0-.1,1.31c.4,1,3.19,3.45,5.14,4.49a1.72,1.72,0,0,0,1.75.11,1.44,1.44,0,0,0,.7-1c0-.56,0-1-1.12-1.46a5.68,5.68,0,0,1-2.18-1.79.36.36,0,0,1,0-.36s.47-.78,1-1.57c.16-.24.33-.48.51-.71s.34-.44.5-.63a6.8,6.8,0,0,0,1.39-2.35,5.07,5.07,0,0,0,.16-2.48c-.15-.89-1-2.07-2.6-3.41a22.22,22.22,0,0,0-2.37-1.8.37.37,0,0,1-.15-.25c0-.1-.94-9.67-2.39-13.85-1.33,0-2.25,0-2.28,0a.33.33,0,0,1-.35-.31.32.32,0,0,1,.31-.36,26.85,26.85,0,0,1,8.27.78c3.47,1.05,4.11,2,4.18,2.08a.33.33,0,0,1,0,.13,2.43,2.43,0,0,0,2,2.1A1.81,1.81,0,0,0,69.88,44a2.52,2.52,0,0,0,.05-2.51c-.52-.92-3.75-5.51-16.89-7.8a11.45,11.45,0,0,1-2,1.51.33.33,0,0,1-.45-.15.13.13,0,0,1,0-.08.33.33,0,0,1,.17-.37,9.85,9.85,0,0,0,1.5-1c.21-.17.42-.37.64-.58s.37-.37.55-.58a7.86,7.86,0,0,0,2-4.78,8.61,8.61,0,0,0-.1-1.81,8.52,8.52,0,0,0-5.44-7,8,8,0,0,0-.86-.3,1.19,1.19,0,0,0,.13.18.34.34,0,0,1-.11.47.34.34,0,0,1-.46-.1s0-.07-.12-.18L48,18.18c-.16-.24-.36-.51-.58-.8a13.94,13.94,0,0,0-3.55-3.59c-.49-.27-.63-.2-.7-.15-.39.48-.49,2.24-.42,3.82,0,.23,0,.46,0,.68s0,.44.06.64v0a.33.33,0,0,1-.3.33h0a.33.33,0,0,1-.33-.3s0-.22,0-.56a8.31,8.31,0,0,0-5.31,3.42A8.82,8.82,0,0,0,35.64,25,3,3,0,0,1,35,26.79a3.3,3.3,0,0,1-.5,1.22,7.1,7.1,0,0,0,1.3,4.08l.17.22a8,8,0,0,0,3.62,2.52c.38.15.79.27,1.21.39a19.46,19.46,0,0,0,3.77.56.32.32,0,0,1,.28.17.3.3,0,0,1,0,.18.34.34,0,0,1-.33.32h0a17.7,17.7,0,0,1-5-.9A20.09,20.09,0,0,0,33,39.27c-1.67,1.38-5.54,4.95-5.41,8.24A1.89,1.89,0,0,0,28.71,49.26ZM55,59.27A18.88,18.88,0,0,0,56.85,57a.33.33,0,1,1,.55.38,18.15,18.15,0,0,1-2,2.4.31.31,0,0,1-.24.1.34.34,0,0,1-.24-.1A.33.33,0,0,1,55,59.27ZM41.76,24.91a9.73,9.73,0,0,0-2.95,1.82.31.31,0,0,1-.22.09.31.31,0,0,1-.21-.07.34.34,0,0,1-.08-.44c1.67-2.89,3.44-2.07,3.52-2a.32.32,0,0,1,.18.33A.33.33,0,0,1,41.76,24.91Zm2.91-7.68A8.23,8.23,0,0,0,44,15.92a.34.34,0,1,1,.57-.37,9.55,9.55,0,0,1,.77,1.66c.08.2.16.43.24.67s.19.6.29.94v0a.33.33,0,0,1-.24.41h-.09a.32.32,0,0,1-.32-.24l-.06-.21q-.15-.51-.3-.93T44.67,17.23Zm-4,40.33a4.08,4.08,0,0,0,1.68,2.32.34.34,0,0,1,.07.47.32.32,0,0,1-.27.14.36.36,0,0,1-.2-.06A4.58,4.58,0,0,1,40,57.67a.33.33,0,1,1,.66-.11Z"/><path class="cls-3" d="M34.15,27.14l.11-.28s-.08,0-.09,0A.56.56,0,0,0,34.15,27.14Z"/><path class="cls-3" d="M33.9,26.7c0,.09.15.15.3.15s.3-.08.3-.17-.1-.15-.24-.17h-.08c-.16,0-.29.08-.29.17s0,0,0,0Z"/><circle class="cls-6" cx="32.14" cy="82.27" r="1.01"/><path class="cls-6" d="M68.51,80a1,1,0,0,0,0,2,1,1,0,1,0,0-2Z"/><path class="cls-6" d="M80.62,69.43a9.19,9.19,0,0,0-2.75-3.25c-3-2.37-4.52-2.18-5.72-2l-.49,0h0c-.07,0-4,.42-9.43.78l.11-.13A6.35,6.35,0,0,0,64,59.46a5.81,5.81,0,0,0-1.61-2.64,15.54,15.54,0,0,1,3.31-2.52,1.84,1.84,0,0,0-.8-3.56c-2-.15-3.79,1.82-5.37,3.62l-.66-.47c-.13-1.29-1-9.5-2.33-13.59a21.25,21.25,0,0,1,5,.76c2.78.84,3.6,1.57,3.76,1.74a3,3,0,0,0,2.55,2.59l.4,0a2.44,2.44,0,0,0,2.12-1.09,3.18,3.18,0,0,0,.07-3.21c-.76-1.34-4.19-5.75-16.9-8A8.6,8.6,0,0,0,56,25.65a9.27,9.27,0,0,0-5.88-7.53,11.61,11.61,0,0,0-1.68-.54c-1-1.33-2.68-3.54-4.22-4.38-.26-.14-1-.52-1.48,0l0,0a5.41,5.41,0,0,0-.62,2.93,9.23,9.23,0,0,0-1.4-.39c-1.15-.22-1.45-.05-1.59.14s-.33.45.37,2.67a7.66,7.66,0,0,0-3.2,2.83A9.31,9.31,0,0,0,35,24.91a3.12,3.12,0,0,1-.39,1.28.63.63,0,0,0-.24,0,.88.88,0,0,0-.77.41,1.72,1.72,0,0,0,.19,1.52,7.73,7.73,0,0,0,1.61,4.62,8.45,8.45,0,0,0,3.2,2.44,21.26,21.26,0,0,0-6.06,3.59c-5.06,4.18-5.71,7.3-5.65,8.79a2.57,2.57,0,0,0,1.58,2.34,2.68,2.68,0,0,0,1,.21,2.55,2.55,0,0,0,1.69-.62A3.26,3.26,0,0,0,32,46.69a13.68,13.68,0,0,1,7.7-5.33c.1,3.48.19,10.19-.48,12.71-.75.56-5.34,4.26-5.16,8a5.21,5.21,0,0,0,1.5,3.34c-7.73.12-14.8,1-17,5.09h0l0,.07h0a10,10,0,0,0-.24,2h0c0,.1.33,2.53,4.43,4.76a24.94,24.94,0,0,0,5.83,2.17,2.54,2.54,0,0,0-.5,1.57,3.26,3.26,0,0,0,.53,1.77h0l.05.09L29.44,84l0,.06,0,0h0a3.2,3.2,0,0,0,2.62,1.35,3.24,3.24,0,0,0,3.24-3.23,3.29,3.29,0,0,0-.51-1.75,84.14,84.14,0,0,0,9.28.47c1.74,0,3.55,0,5.45-.12,5.6-.24,10.57-.67,14.85-1.29a.71.71,0,0,0,0,.14A3.24,3.24,0,0,0,65,81.54h0l.83,1.26h0a3.23,3.23,0,1,0,4.78-4.28l0-.07c1-.23,2-.48,2.88-.74,4.66-1.35,6.75-2.8,7.68-3.78a2,2,0,0,0,.51-1.82A14.65,14.65,0,0,0,80.62,69.43Zm-15.73-18a1.33,1.33,0,0,1,1.33.91,1.35,1.35,0,0,1-.81,1.39A15.5,15.5,0,0,0,62,56.34a21.81,21.81,0,0,0-1.85-1.58C61.64,53,63.22,51.28,64.89,51.42ZM42,16.8l.09,0c0,.28,0,.54,0,.78l-.31.07a11.83,11.83,0,0,0-1.71.58,9.29,9.29,0,0,1-.43-2A6.74,6.74,0,0,1,42,16.8ZM33.9,26.7h0s0,0,0,0,.13-.17.29-.17h.08c.14,0,.24.09.24.17s-.13.17-.3.17S33.92,26.79,33.9,26.7Zm.25.44a.56.56,0,0,1,0-.24s0,0,.09,0Zm1.11,36.74A4.1,4.1,0,0,1,34.7,62c-.17-3.58,4.93-7.42,5-7.45a.36.36,0,0,0,.12-.18c1-3.41.49-14.7.47-15.18a.33.33,0,0,0-.35-.32.33.33,0,0,0-.32.35s0,.58,0,1.46a14,14,0,0,0-8.32,5.78.34.34,0,0,0,0,.24A2.67,2.67,0,0,1,30.72,49a1.93,1.93,0,0,1-2,.29,1.89,1.89,0,0,1-1.17-1.75c-.13-3.29,3.74-6.86,5.41-8.24a20.09,20.09,0,0,1,6.58-3.72,17.7,17.7,0,0,0,5,.9h0a.34.34,0,0,0,.33-.32.3.3,0,0,0,0-.18.32.32,0,0,0-.28-.17,19.46,19.46,0,0,1-3.77-.56c-.42-.12-.83-.24-1.21-.39a8,8,0,0,1-3.62-2.52l-.17-.22A7.1,7.1,0,0,1,34.45,28a3.3,3.3,0,0,0,.5-1.22A3,3,0,0,0,35.64,25a8.82,8.82,0,0,1,1.18-3.32,8.31,8.31,0,0,1,5.31-3.42c0,.34,0,.55,0,.56a.33.33,0,0,0,.33.3h0a.33.33,0,0,0,.3-.33v0c0-.2,0-.41-.06-.64s0-.45,0-.68c-.07-1.58,0-3.34.42-3.82.07-.05.21-.12.7.15a13.94,13.94,0,0,1,3.55,3.59c.22.29.42.56.58.8l.44.64c.07.11.12.17.12.18a.34.34,0,0,0,.46.1.34.34,0,0,0,.11-.47,1.19,1.19,0,0,1-.13-.18,8,8,0,0,1,.86.3,8.52,8.52,0,0,1,5.44,7,8.61,8.61,0,0,1,.1,1.81,7.86,7.86,0,0,1-2,4.78c-.18.21-.37.4-.55.58s-.43.41-.64.58a9.85,9.85,0,0,1-1.5,1,.33.33,0,0,0-.17.37.13.13,0,0,0,0,.08.33.33,0,0,0,.45.15,11.45,11.45,0,0,0,2-1.51c13.14,2.29,16.37,6.88,16.89,7.8A2.52,2.52,0,0,1,69.88,44a1.81,1.81,0,0,1-1.87.77,2.43,2.43,0,0,1-2-2.1.33.33,0,0,0,0-.13c-.07-.1-.71-1-4.18-2.08a26.85,26.85,0,0,0-8.27-.78.32.32,0,0,0-.31.36.33.33,0,0,0,.35.31s1-.06,2.28,0c1.45,4.18,2.38,13.75,2.39,13.85a.37.37,0,0,0,.15.25,22.22,22.22,0,0,1,2.37,1.8c1.55,1.34,2.45,2.52,2.6,3.41a5.07,5.07,0,0,1-.16,2.48,6.8,6.8,0,0,1-1.39,2.35c-.16.19-.33.41-.5.63s-.35.47-.51.71c-.55.79-1,1.52-1,1.57a.36.36,0,0,0,0,.36A5.68,5.68,0,0,0,62,69.47c1.12.5,1.12.9,1.12,1.46a1.44,1.44,0,0,1-.7,1,1.72,1.72,0,0,1-1.75-.11c-1.95-1-4.74-3.48-5.14-4.49a1.49,1.49,0,0,1,.1-1.31,3.46,3.46,0,0,1,.49-.7l.16-.18a.35.35,0,0,0,.05-.38,7.31,7.31,0,0,0-.52-.84,10,10,0,0,0-2.88-2.54l.12,0a.34.34,0,0,0-.14-.66,23.89,23.89,0,0,1-9,.23.34.34,0,0,0-.14.66s.31.06.75.12a12.17,12.17,0,0,0-1.74,2,8.86,8.86,0,0,0-1,1.72,5.62,5.62,0,0,0-.21.67,2.4,2.4,0,0,0,0,.57.72.72,0,0,0,.34.61c.7.4,1.14.71,1,1.34A9.17,9.17,0,0,1,40.58,72a2.27,2.27,0,0,1-3,.55,1,1,0,0,1-.37-.81,1.21,1.21,0,0,1,.51-1,8.32,8.32,0,0,0,1.82-2.43.35.35,0,0,0,0-.38,11.86,11.86,0,0,0-1.54-1.35c-.23-.19-.47-.37-.7-.57a9.58,9.58,0,0,1-.76-.67A6.24,6.24,0,0,1,35.26,63.88Zm15.25-.09a4.23,4.23,0,0,0,.7.06,4.44,4.44,0,0,0,2.67-1,7.56,7.56,0,0,1,1.72,2,4.43,4.43,0,0,0-.38.49c-2.17.08-4.42.13-6.63.13-1.68,0-3.42,0-5.26-.07H42.6a10.13,10.13,0,0,1,2.84-3.58l0,0c.61.05,1.36.1,2.22.1l0,.06A4.47,4.47,0,0,0,50.51,63.79Zm-2-1.9a25.32,25.32,0,0,0,3.38-.33l0,0a10.66,10.66,0,0,1,1.41.86,3.59,3.59,0,0,1-2.7.68A3.87,3.87,0,0,1,48.5,61.89ZM36.2,66c.43.39.88.75,1.3,1.09a14.28,14.28,0,0,1,1.3,1.1,7.13,7.13,0,0,1-1.52,2,1.91,1.91,0,0,0-.78,1.55,1.68,1.68,0,0,0,.65,1.35,2.88,2.88,0,0,0,1.59.51h.06a3.18,3.18,0,0,0,2.27-1.15,9.6,9.6,0,0,0,2.49-3.72c.32-1.17-.67-1.74-1.27-2.09a1,1,0,0,1,.05-.59l1,0c1.84,0,3.58.06,5.27.06,2.09,0,4.21,0,6.28-.12a2,2,0,0,0,0,1.54c.5,1.26,3.5,3.79,5.45,4.83a2.9,2.9,0,0,0,1.36.39,2.1,2.1,0,0,0,2.08-1.86,3,3,0,0,0-.05-.66.9.9,0,0,0,.42.1c.34,0,.61-.15.61-.33s-.27-.33-.61-.33a.69.69,0,0,0-.56.21,2.5,2.5,0,0,0-1.32-1.06,5,5,0,0,1-1.77-1.39c.21-.34.68-1.08,1.18-1.77,5.67-.36,9.86-.8,10-.82a4.78,4.78,0,0,0,.53-.06c1.13-.14,2.41-.3,5.21,1.89,3,2.33,3,4.42,3,4.66s-.65,1.52-4.43,3c-6.7,2.64-18.06,3.61-26.41,4s-19.8,0-26.27-3.45c-3.38-1.83-4-3.78-4.07-4.22C21.35,66.88,28.48,66.11,36.2,66Zm-4.06,18.8a2.54,2.54,0,0,1-1.78-.73,3.09,3.09,0,0,1-.33-.39l0,0a2.42,2.42,0,0,1-.32-.69,2.46,2.46,0,0,1-.11-.72A2.56,2.56,0,0,1,31,80q1.32.24,2.76.42l.12,0a2.5,2.5,0,0,1,.62.92,2.46,2.46,0,0,1,.18.94A2.56,2.56,0,0,1,32.14,84.83Zm38.75-4.78a2.41,2.41,0,0,1,.18.93,2.56,2.56,0,0,1-4.34,1.84,2.59,2.59,0,0,1-.67-1.11,2.52,2.52,0,0,1,.58-2.47c1-.17,2-.36,3-.56a2.74,2.74,0,0,1,.46.29A2.46,2.46,0,0,1,70.89,80.05Zm9.77-6.56c-.92,1-3.36,2.7-9.65,4.19l-1,.23-.33.07-.72.15h-.08c-.6.12-1.22.24-1.87.35l-.73.13-.93.15-.81.12L64,79c-3.87.53-8.6,1-14.38,1.21a96.56,96.56,0,0,1-15-.4l-.35,0h-.08l-.8-.1h-.07c-.51-.07-1-.15-1.51-.24L31,79.25l-.62-.12-1.16-.25c-.71-.17-1.41-.36-2.09-.56a22.57,22.57,0,0,1-3.92-1.58c-3.87-2.06-4.2-4.28-4.2-4.31h0v0a2.86,2.86,0,0,1,0-.48,9.2,9.2,0,0,0,3.85,3.49,24.48,24.48,0,0,0,6.06,2.24,46.9,46.9,0,0,0,4.9.89,81.75,81.75,0,0,0,10.33.59c1.74,0,3.55,0,5.45-.12,6-.25,10.84-.7,14.77-1.25q3-.42,5.26-.9c8.56-1.78,10.73-4.06,11.27-5,0,.13.07.26.1.37A1.38,1.38,0,0,1,80.66,73.49Z"/><path class="cls-6" d="M30,71.22c.34,0,.61-.15.61-.34s-.27-.33-.61-.33-.6.15-.6.33S29.66,71.22,30,71.22Z"/><path class="cls-6" d="M33,71.4c.33,0,.6-.15.6-.33s-.27-.34-.6-.34-.6.15-.6.34S32.68,71.4,33,71.4Z"/><ellipse class="cls-6" cx="30.48" cy="72.91" rx="0.6" ry="0.33"/><path class="cls-6" d="M32.89,73.09c0,.18.27.33.6.33s.61-.15.61-.33-.27-.33-.61-.33S32.89,72.91,32.89,73.09Z"/><path class="cls-6" d="M67.16,70.07c.34,0,.61-.15.61-.33s-.27-.33-.61-.33-.6.14-.6.33S66.83,70.07,67.16,70.07Z"/><path class="cls-6" d="M65.22,72c.34,0,.61-.15.61-.33s-.27-.33-.61-.33-.6.15-.6.33S64.89,72,65.22,72Z"/><ellipse class="cls-6" cx="68.24" cy="71.4" rx="0.6" ry="0.33"/><path class="cls-6" d="M42,60.43a.36.36,0,0,0,.2.06.32.32,0,0,0,.27-.14.34.34,0,0,0-.07-.47,4.08,4.08,0,0,1-1.68-2.32.33.33,0,1,0-.66.11A4.58,4.58,0,0,0,42,60.43Z"/><path class="cls-6" d="M55.19,59.84a.31.31,0,0,0,.24-.1,18.15,18.15,0,0,0,2-2.4.33.33,0,1,0-.55-.38A18.88,18.88,0,0,1,55,59.27a.33.33,0,0,0,0,.47A.34.34,0,0,0,55.19,59.84Z"/><path class="cls-6" d="M41.82,24.28c-.08,0-1.85-.86-3.52,2a.34.34,0,0,0,.08.44.31.31,0,0,0,.21.07.31.31,0,0,0,.22-.09,9.73,9.73,0,0,1,2.95-1.82.33.33,0,0,0,.24-.3A.32.32,0,0,0,41.82,24.28Z"/><path class="cls-6" d="M45.21,18.82l.06.21a.32.32,0,0,0,.32.24h.09a.33.33,0,0,0,.24-.41v0c-.1-.34-.19-.65-.29-.94s-.16-.47-.24-.67a9.55,9.55,0,0,0-.77-1.66.34.34,0,1,0-.57.37,8.23,8.23,0,0,1,.63,1.31q.12.3.24.66T45.21,18.82Z"/></svg>