<svg id="_鍣_1" data-name="鍣_1" xmlns="http://www.w3.org/2000/svg" viewBox="0 0 1186.28 1197.79"><defs><style>.cls-1{opacity:0.8;}.cls-2{fill:#fff;}.cls-3{opacity:0.7;}.cls-4{opacity:0.6;}.cls-5{opacity:0.5;}.cls-6{opacity:0.4;}.cls-7{opacity:0.3;}.cls-8{opacity:0.2;}.cls-9{opacity:0.1;}</style></defs><title>login-bg</title><g class="cls-1"><path class="cls-2" d="M1051.51,1088.14c-19-10.56-30.56,4.78-30.56,4.78s-13.64,13.58-.59,31,1.65,29.43,11.07,42.63,24.37,1.26,28.26-6.35,14.77-20.59,14.77-20.59,11.36-12.52,18.35-17.41,16.77-21.33,2.4-28.84S1070.5,1098.71,1051.51,1088.14Z"/><path class="cls-2" d="M999.58,1067.45c-7-10.59-6-23.39,2.29-28.59s20.56-.84,27.53,9.73,6,23.39-2.29,28.6S1006.55,1078,999.58,1067.45Z"/><path class="cls-2" d="M1078.43,1055.47c5.83,11.23,3.42,23.79-5.34,28.08s-20.61-1.34-26.43-12.57-3.44-23.79,5.34-28.07S1072.6,1044.24,1078.43,1055.47Z"/><path class="cls-2" d="M978.09,1107.4c-11.44-5.46-17.43-17.08-13.41-26s16.56-11.63,28-6.18,17.44,17.07,13.41,25.94S989.52,1112.85,978.09,1107.4Z"/><path class="cls-2" d="M991.7,1155c-11.91-4.23-19.1-15.18-16.06-24.46s15.17-13.37,27.08-9.14,19.1,15.18,16.06,24.46S1003.62,1159.24,991.7,1155Z"/></g><g class="cls-3"><path class="cls-2" d="M1056.53,896.21c-19-10.55-30.56,4.78-30.56,4.78s-13.64,13.58-.59,31,1.64,29.44,11.07,42.63,24.37,1.26,28.26-6.34,14.77-20.6,14.77-20.6,11.36-12.51,18.35-17.41,16.77-21.33,2.4-28.84S1075.52,906.78,1056.53,896.21Z"/><path class="cls-2" d="M1004.6,875.52c-7-10.59-6-23.38,2.29-28.59s20.56-.84,27.53,9.74,6,23.38-2.29,28.59S1011.57,886.1,1004.6,875.52Z"/><path class="cls-2" d="M1083.45,863.54c5.83,11.23,3.42,23.79-5.35,28.08s-20.6-1.34-26.43-12.56-3.43-23.8,5.35-28.08S1077.62,852.31,1083.45,863.54Z"/><path class="cls-2" d="M983.11,915.47c-11.44-5.46-17.44-17.08-13.41-25.94s16.56-11.64,28-6.19,17.44,17.07,13.41,25.94S994.54,920.92,983.11,915.47Z"/><path class="cls-2" d="M996.72,963.07c-11.91-4.23-19.1-15.18-16.06-24.46s15.17-13.37,27.08-9.14,19.1,15.18,16.06,24.47S1008.64,967.31,996.72,963.07Z"/></g><g class="cls-4"><path class="cls-2" d="M910.29,958.45c-19-10.56-30.56,4.78-30.56,4.78s-13.64,13.58-.59,31,1.65,29.43,11.07,42.63,24.38,1.26,28.26-6.35,14.77-20.59,14.77-20.59,11.36-12.52,18.35-17.41,16.77-21.33,2.4-28.84S929.28,969,910.29,958.45Z"/><path class="cls-2" d="M858.36,937.76c-7-10.59-6-23.39,2.29-28.59s20.56-.84,27.53,9.73,6,23.39-2.28,28.6S865.33,948.34,858.36,937.76Z"/><path class="cls-2" d="M937.21,925.78c5.83,11.23,3.42,23.78-5.34,28.08s-20.6-1.34-26.43-12.57-3.44-23.79,5.34-28.07S931.38,914.55,937.21,925.78Z"/><path class="cls-2" d="M836.87,977.71c-11.43-5.46-17.43-17.08-13.41-26s16.57-11.63,28-6.18,17.44,17.06,13.41,25.94S848.3,983.16,836.87,977.71Z"/><path class="cls-2" d="M850.48,1025.31c-11.91-4.23-19.1-15.18-16.06-24.47s15.17-13.36,27.08-9.13,19.1,15.18,16.06,24.46S862.4,1029.55,850.48,1025.31Z"/></g><g class="cls-5"><path class="cls-2" d="M915.31,766.52c-19-10.56-30.56,4.78-30.56,4.78s-13.64,13.58-.59,31,1.65,29.44,11.07,42.63,24.37,1.26,28.26-6.35S938.26,818,938.26,818s11.36-12.51,18.35-17.41,16.77-21.33,2.4-28.84S934.3,777.09,915.31,766.52Z"/><path class="cls-2" d="M863.38,745.83c-7-10.59-6-23.39,2.29-28.59s20.56-.84,27.53,9.74,6,23.38-2.29,28.59S870.35,756.41,863.38,745.83Z"/><path class="cls-2" d="M942.23,733.85c5.83,11.23,3.42,23.79-5.34,28.08s-20.61-1.34-26.43-12.57-3.44-23.79,5.34-28.07S936.4,722.62,942.23,733.85Z"/><path class="cls-2" d="M841.89,785.78c-11.44-5.46-17.43-17.08-13.41-25.95s16.56-11.63,28-6.18,17.44,17.07,13.41,25.94S853.32,791.23,841.89,785.78Z"/><path class="cls-2" d="M855.5,833.38c-11.91-4.23-19.1-15.18-16.06-24.46s15.17-13.37,27.08-9.14,19.1,15.18,16.06,24.46S867.42,837.62,855.5,833.38Z"/></g><g class="cls-6"><path class="cls-2" d="M762,833.35c-19-10.56-30.55,4.78-30.55,4.78s-13.65,13.58-.59,31,1.64,29.43,11.06,42.63,24.38,1.26,28.27-6.35S785,884.78,785,884.78s11.35-12.52,18.35-17.41,16.76-21.33,2.39-28.84S781,843.92,762,833.35Z"/><path class="cls-2" d="M710.12,812.66c-7-10.59-6-23.39,2.28-28.59s20.57-.84,27.54,9.73,5.95,23.39-2.29,28.6S717.09,823.24,710.12,812.66Z"/><path class="cls-2" d="M789,800.68c5.83,11.23,3.42,23.79-5.35,28.08s-20.6-1.34-26.43-12.57-3.43-23.79,5.35-28.07S783.14,789.45,789,800.68Z"/><path class="cls-2" d="M688.63,852.61c-11.44-5.46-17.44-17.08-13.42-26s16.57-11.63,28-6.18,17.44,17.06,13.41,25.94S700.06,858.06,688.63,852.61Z"/><path class="cls-2" d="M702.24,900.21C690.33,896,683.13,885,686.18,875.74s15.17-13.36,27.08-9.13,19.1,15.18,16.06,24.46S714.16,904.45,702.24,900.21Z"/></g><g class="cls-7"><path class="cls-2" d="M767.06,641.42c-19-10.56-30.55,4.78-30.55,4.78s-13.65,13.58-.59,31,1.64,29.44,11.06,42.63,24.38,1.26,28.26-6.35S790,692.85,790,692.85s11.36-12.51,18.35-17.41,16.77-21.33,2.4-28.84S786.05,652,767.06,641.42Z"/><path class="cls-2" d="M715.14,620.73c-7-10.59-6-23.38,2.28-28.59S738,591.3,745,601.88s5.95,23.38-2.29,28.59S722.1,631.31,715.14,620.73Z"/><path class="cls-2" d="M794,608.75c5.83,11.23,3.42,23.79-5.35,28.08s-20.6-1.34-26.43-12.56-3.43-23.8,5.35-28.08S788.16,597.52,794,608.75Z"/><path class="cls-2" d="M693.64,660.68c-11.43-5.46-17.43-17.08-13.41-25.95s16.57-11.63,28-6.18,17.45,17.07,13.42,25.94S705.08,666.13,693.64,660.68Z"/><path class="cls-2" d="M707.26,708.28c-11.91-4.23-19.11-15.18-16.06-24.46s15.17-13.37,27.08-9.14,19.1,15.18,16.06,24.46S719.18,712.52,707.26,708.28Z"/></g><g class="cls-8"><path class="cls-2" d="M618.86,702.59c-19-10.55-30.55,4.79-30.55,4.79s-13.65,13.57-.59,31,1.64,29.44,11.06,42.63,24.38,1.26,28.26-6.34S641.81,754,641.81,754s11.36-12.51,18.35-17.41,16.77-21.32,2.4-28.84S637.85,713.16,618.86,702.59Z"/><path class="cls-2" d="M566.94,681.9c-7-10.59-6-23.38,2.28-28.59s20.57-.84,27.54,9.74,6,23.39-2.29,28.59S573.9,692.48,566.94,681.9Z"/><path class="cls-2" d="M645.78,669.92c5.83,11.23,3.43,23.79-5.34,28.08s-20.6-1.33-26.43-12.56-3.43-23.8,5.34-28.08S640,658.7,645.78,669.92Z"/><path class="cls-2" d="M545.44,721.85C534,716.4,528,704.78,532,695.91s16.57-11.64,28-6.19,17.44,17.07,13.41,25.95S556.88,727.3,545.44,721.85Z"/><path class="cls-2" d="M559.05,769.45C547.15,765.22,540,754.27,543,745s15.18-13.36,27.09-9.14,19.1,15.19,16.06,24.47S571,773.69,559.05,769.45Z"/></g><g class="cls-9"><path class="cls-2" d="M623.88,510.66c-19-10.55-30.55,4.79-30.55,4.79s-13.65,13.57-.59,30.95,1.64,29.44,11.06,42.63,24.38,1.26,28.26-6.34,14.77-20.6,14.77-20.6,11.36-12.51,18.35-17.41,16.77-21.32,2.4-28.84S642.87,521.23,623.88,510.66Z"/><path class="cls-2" d="M572,490c-7-10.6-6-23.39,2.28-28.6s20.57-.84,27.53,9.74,6,23.39-2.28,28.59S578.92,500.56,572,490Z"/><path class="cls-2" d="M650.8,478c5.83,11.22,3.43,23.78-5.34,28.07s-20.6-1.33-26.43-12.56-3.44-23.8,5.34-28.08S645,466.77,650.8,478Z"/><path class="cls-2" d="M550.46,529.92C539,524.47,533,512.85,537.05,504s16.57-11.64,28-6.18,17.44,17.06,13.41,25.94S561.9,535.37,550.46,529.92Z"/><path class="cls-2" d="M564.07,577.52c-11.9-4.23-19.1-15.18-16.06-24.46s15.18-13.36,27.09-9.13,19.1,15.18,16.06,24.46S576,581.76,564.07,577.52Z"/></g></svg>