<svg id="Layer_1" data-name="Layer 1" xmlns="http://www.w3.org/2000/svg" viewBox="0 0 852.99 667.79"><defs><style>.cls-1{opacity:0.2;}.cls-2{fill:#eeb569;}.cls-11,.cls-3{fill:#fff;}.cls-4{fill:#ff8a9f;}.cls-5{fill:#fce9db;}.cls-6{fill:#410000;}.cls-7{fill:#ffdde1;}.cls-8{fill:#fff34e;}.cls-9{fill:#fffcfc;opacity:0.34;}.cls-10{fill:#fde0da;}.cls-11,.cls-12{stroke:#fff;stroke-width:0.55px;}.cls-11,.cls-12,.cls-15{stroke-linecap:round;stroke-miterlimit:10;}.cls-12,.cls-15{fill:none;}.cls-13{fill:#fddcda;}.cls-14{fill:#f2e8da;}.cls-15{stroke:#f2e8da;stroke-width:0.19px;}</style></defs><title>OH DOG CAT</title><ellipse class="cls-1" cx="294.08" cy="603.51" rx="182.27" ry="33.28"/><path class="cls-2" d="M143.13,124.31c-5,1.13-10,2.46-14.9,4-2.18.68-4.34,1.41-6.46,2.19h0a86.34,86.34,0,0,0-9.25-10.39A123.87,123.87,0,0,0,99.08,109,157.77,157.77,0,0,0,84.62,99.5a147.93,147.93,0,0,0-15.35-7.89A2.45,2.45,0,0,0,67,95.9L67,96c4.58,3,9.15,6.33,13.58,9.64,3.17,2.44,6.3,4.93,9.35,7.47,1.17,1,2.34,2,3.5,3,4.16,3.62,8,7.48,11.88,11.32,2.28,2.3,4.45,4.71,6.57,7.12a153.74,153.74,0,0,0-26.15,14.41c-3.56,2.44-6.94,5-10.17,7.67-3,2.52-5.89,5.11-8.6,7.81-3.12-7.29-6.13-15.1-8.87-23-10.61-30.75-16.51-62.62-4.63-68.56,3-1.46,6.85-1.6,11.43-.6C85.4,76.53,119.55,102.66,143.13,124.31Z"/><path class="cls-3" d="M75.07,356.9c-10.89-3.3-15.58-11.81-17.55-19.08a38.17,38.17,0,0,1-1.23-6.51,3.89,3.89,0,0,0,1.05-.33l4.78-2.2c1.08,1.54,2.2,2.94,3.32,4.36,1.52,1.89,3.11,3.69,4.81,5.42a72.56,72.56,0,0,1,3.13,9.71A83.67,83.67,0,0,1,75.07,356.9Z"/><path class="cls-4" d="M114.16,370.1a16.08,16.08,0,0,1-6.74,5.21,15.84,15.84,0,0,1-8.85.87l-.42-.07a16.3,16.3,0,0,1-12.78-15c-.12-1.48-.27-2.92-.46-4.33-.36-3-.86-5.77-1.42-8.3a34.46,34.46,0,0,0,5.78,2.26,35.6,35.6,0,0,0,20.5.11,32,32,0,0,0,4.18-1.62,22.91,22.91,0,0,1,2,3.42A16.65,16.65,0,0,1,114.16,370.1Z"/><path class="cls-2" d="M148.76,475.59c-.25,1.75-.47,3.53-.65,5.3,0,.1,0,.2,0,.3-10.71-14.41-25.69-26.27-26.52-26.92a4.9,4.9,0,0,0-3.47-1c-3.19.28-12.34-.06-16.42-5.08a10.37,10.37,0,0,1-2.16-5.05,22.37,22.37,0,0,1,.38-8,.1.1,0,0,1,0-.05,32,32,0,0,1,1-3.76c3.43-11.24,11.55-19.24,15.26-22.44,1.75.62,3.5,1.21,5.31,1.8.77.25,1.52.52,2.28.81a66.48,66.48,0,0,1,13.35,6.82,69,69,0,0,1,11.09,9l2.44,2.46a87,87,0,0,0-1.84,45.82Z"/><path class="cls-5" d="M197.72,388.23A97.43,97.43,0,0,0,193,400.44c0,.07-.06.17-.08.25a19.71,19.71,0,0,0-.74,2.52,96,96,0,0,0-7.7,6,114.91,114.91,0,0,0-8.4,8.26,107.75,107.75,0,0,0-13.79,19,119,119,0,0,0-5.46,11,74.33,74.33,0,0,1,26.47-49.28c2.53-2.08,5-3.93,7.45-5.56S195.55,389.45,197.72,388.23Z"/><path class="cls-5" d="M281.31,471.78c-4.95,16.73-14.9,27.18-25.52,33.68a76,76,0,0,1-28.32,10c17.36-11.39,23.2-28.74,25.1-37.22a38.13,38.13,0,0,0,4.41,0,31.38,31.38,0,0,0,6.87-1.21l.26-.09a28.9,28.9,0,0,0,10.83-6C277.07,471.28,279.2,471.58,281.31,471.78Z"/><path class="cls-2" d="M242.93,476.44a53.43,53.43,0,0,1-11,22.08,46.68,46.68,0,0,1-15.1,11.78,12.41,12.41,0,0,0-.75-1.39,2.51,2.51,0,0,0-2.55-1.18,2.45,2.45,0,0,0-2,2.85v0c.16.9.29,1.79.4,2.67.29,1.89.56,3.73.78,5.6.05.39.1.76.12,1.15.19,1.43.33,2.84.48,4.28.24,2.58.46,5.16.6,7.77a169.51,169.51,0,0,1,0,21.62,196.13,196.13,0,0,1-2.73,21.65c-.62,3.6-1.42,7.17-2.21,10.75l-.64,2.66c-.11.5-.19.75-.27,1s-.21.55-.29.82a9,9,0,0,1-2,2.83,8.26,8.26,0,0,1-3,1.81,8.81,8.81,0,0,1-1.68.43l-1,.08-1.39.09-11.19.69c-3.47.22-6.83.44-10.13.54a87.63,87.63,0,0,1-11.38-.29,35.74,35.74,0,0,1-9.47-2.08,11.42,11.42,0,0,1-4.29-2.73,2.76,2.76,0,0,1-.69-1.25c-.19-.31-.12-.73-.22-1.09a5.66,5.66,0,0,1,.18-1.36,14,14,0,0,1,.53-1.58l.47-.81.69-1.34c.33-.64.65-1.27.93-1.92a17.55,17.55,0,0,0,.57-1.8l.47-1.77.24-1.61a53.38,53.38,0,0,0,.57-6.18c.27-7.86,0-15.29-.06-22.73s-.11-14.83.09-22.21q.51-22.19,2.92-44.25a104.88,104.88,0,0,1,12.42-40.5,98.67,98.67,0,0,1,12.31-17.33,96.84,96.84,0,0,1,7.44-7.59c.07,0,.11-.11.18-.16.44-.4.91-.79,1.35-1.19a32.24,32.24,0,0,0,9.18,15.05c2.61,2.47,5.42,5,8.37,7.39a34.43,34.43,0,0,0,5,17.28,46.44,46.44,0,0,0,14,14.71,9.34,9.34,0,0,0,.82.58A48.92,48.92,0,0,0,242.93,476.44Z"/><path class="cls-5" d="M239.62,456.14a22.41,22.41,0,0,1-6.39,4.48,36.76,36.76,0,0,1-9.6-10.44s0-.07,0-.1c-6.15-10.49-4.34-21.78,5.08-32.06,3.38,1.54,9.15,4.08,16.49,6.85a45.52,45.52,0,0,1,1,5.45C247.11,437.68,247,448.76,239.62,456.14Z"/><path class="cls-5" d="M261,467.63c-5.31,1.62-11.75.91-17.93-1.53a29.77,29.77,0,0,0,7.55-8.2c4.9-7.74,6.1-17.15,5.56-25.39-.08-1.32-.21-2.59-.37-3.82,5.89,2,12.33,3.92,19,5.56C276.1,441.81,278,462.45,261,467.63Z"/><path class="cls-2" d="M470.9,386.22a57.08,57.08,0,0,1-8.41,28.39,71.06,71.06,0,0,1-21,21.87,114.89,114.89,0,0,1-21.71,11.45h0c-1,.41-1.91.79-2.87,1.17-1.12.47-2.24.88-3.36,1.32a232.82,232.82,0,0,1-30.87,8.46,2.47,2.47,0,0,0-2,2.48,2.44,2.44,0,0,0,2.53,2.38c2.1-.07,4.2-.15,6.32-.34a129,129,0,0,0,26.69-4.63l.31-.1c4.1,14.38,11.73,37.15,23.23,55.45a34.94,34.94,0,0,1,5.41,15c1.27,11.6,1.93,34-7.52,56.28a203.16,203.16,0,0,1-31.1,4.87,171.49,171.49,0,0,1-29.27-.08.94.94,0,0,1-.68-.39,1,1,0,0,1-.15-.8,44.54,44.54,0,0,0-4.94-34c1.47-.83,2.9-1.65,4.32-2.55a102.41,102.41,0,0,0,12.7-9.11,100.82,100.82,0,0,0,13.6-13.65c1.5-1.83,2.92-3.74,4.26-5.71a75.42,75.42,0,0,0,11-23.81,2.44,2.44,0,0,0-4.63-1.54,82.09,82.09,0,0,1-12.43,20.82A98.49,98.49,0,0,1,382.8,536,131.48,131.48,0,0,1,362,548.43c-1.31.65-2.64,1.28-4,1.88-.95.45-1.9.86-2.85,1.26-.62.29-1.24.55-1.86.81-2.46,1-5,2-7.47,3,0-.39,0-.78,0-1.18.05-3,.17-6,.44-9.06.1-1.13.2-2.27.34-3.38a98.82,98.82,0,0,1,2.2-11.77,71.85,71.85,0,0,1,4.14-11.24l.06-.15a2.48,2.48,0,0,0-4-2.81,40.46,40.46,0,0,0-7.95,11.3,60.85,60.85,0,0,0-4.27,13.06,82.63,82.63,0,0,0-1.49,13.47,100.29,100.29,0,0,0,.52,13.65l.14.7a1.73,1.73,0,0,0,.07.61l0,1.18c0,.78-.18,1.85-.24,2.76l-.47,3-.66,3a99.81,99.81,0,0,1-3.72,12,78.43,78.43,0,0,1-5.19,11.18c-1.94,3.39-4.52,6.64-6.52,7.8a25.09,25.09,0,0,1-4.92,1.67c-1.92.49-4,.87-6.06,1.23-4.17.68-8.45,1.18-12.73,1.54-2.49.18-5,.37-7.49.46-1.44.07-2.88.14-4.32.19-4.7.13-9.35.09-13.92-.2-2.09-.13-4.17-.36-6.14-.65a27.38,27.38,0,0,1-5.23-1.25,8.3,8.3,0,0,1,1.48-2.94A35.61,35.61,0,0,0,265.31,595c.38-2.43.57-4.81.71-7.15s.27-4.4.42-6.61c1.15-17.71,3-35.34,1.62-53.25a2.49,2.49,0,0,0-1.91-2.22,2.43,2.43,0,0,0-3,1.83c-.58,2.36-1.09,4.72-1.55,7.08-1.76,9-2.81,18-3.67,27.08a108.93,108.93,0,0,1-34-13,105.46,105.46,0,0,0-.73-17.66q-.36-2.7-.94-5.38c2.17-.19,4.89-.49,8-1a93.88,93.88,0,0,0,15.67-4.09H246c17.47-6.23,37.73-19.63,45.32-48.41,1.23,0,2.45-.06,3.67-.14a73.38,73.38,0,0,0,15.74-2.74c26.79-7.82,50.13-26.9,61.54-49.07.57-1,1.06-2.08,1.56-3.14a114.1,114.1,0,0,0,19.85-17.39c6.22-7.11,11.49-15.71,13.59-25.54s.51-20.31-3.52-29.11a75.88,75.88,0,0,0-10.85-16.92l-.05-.05a83.68,83.68,0,0,1,14.45-1.85A65.2,65.2,0,0,1,444,335.77a58.9,58.9,0,0,1,11.42,9.58,55.26,55.26,0,0,1,4.76,5.77c.73,1,1.34,2.09,2,3.12a28.9,28.9,0,0,1,1.88,3.23l1.68,3.35c.52,1.11.91,2.31,1.38,3.46a65.26,65.26,0,0,1,2.23,7.12A61.18,61.18,0,0,1,470.9,386.22Z"/><path class="cls-5" d="M355.14,388.85a6.39,6.39,0,0,1-2.27,4.87,1.33,1.33,0,0,1-.24.19,6.51,6.51,0,0,1-5.55,1.49,6,6,0,0,1-3.4-1.81s0,0,0,0a.05.05,0,0,1,0-.05.41.41,0,0,0-.16-.16v0l0,0a0,0,0,0,1,0,0,.4.4,0,0,1-.11-.12l-.15-.13c-.3-.33-.58-.63-.87-.92a52.37,52.37,0,0,0-13.49-10A32.37,32.37,0,0,1,339,374.33a43.26,43.26,0,0,1,4.42,2.35,62.56,62.56,0,0,1,8.18,6c.44.39.9.78,1.35,1.19A6.67,6.67,0,0,1,355.14,388.85Z"/><path class="cls-5" d="M368.69,402.39c-.2.77-.39,1.54-.63,2.34a.42.42,0,0,1,0,.15,58.1,58.1,0,0,1-2.67,7.11,5.38,5.38,0,0,0-.24.55C356.39,431.5,336,451.78,308,460a63.92,63.92,0,0,1-20.16,2.5c-.22,0-.44,0-.66,0q-2.81-.1-5.61-.44c.51-1.09,1-2.2,1.4-3.33,3.68-10.28,2.69-22.16.73-29.7a4.92,4.92,0,0,0-3.64-3.53c-26.12-6-50.09-17.57-50.32-17.7a4.9,4.9,0,0,0-5.53.87,49.9,49.9,0,0,0-9.82,12.71,34.56,34.56,0,0,0-2.31,5.2c-1.43-1.28-2.63-2.38-3.57-3.27a22.27,22.27,0,0,1-6.77-11.92,15.6,15.6,0,0,1-.26-4.25,3.54,3.54,0,0,1,.11-1,5,5,0,0,1,.2-1.09,2.09,2.09,0,0,0,.08-.25c2.85-2.76,16.15-13.35,41.54-1.27,15.22,7.23,36,12.52,57,11.14a89.83,89.83,0,0,0,28.67-6.52,77.65,77.65,0,0,0,10.45-5.29,16.08,16.08,0,0,0,9.77,2.5,16.73,16.73,0,0,0,9.66-3.91l.21-.19a16.24,16.24,0,0,0,3.84-20c1-1.29,1.91-2.62,2.82-4C371,385.71,370.38,395.25,368.69,402.39Z"/><path class="cls-5" d="M357.91,371.53c-.54.79-1.05,1.56-1.61,2.33a70.69,70.69,0,0,0-7-5.05,51.66,51.66,0,0,0-8.46-4.32,4.85,4.85,0,0,0-3.34-.1A40.8,40.8,0,0,0,317,381.79a4.86,4.86,0,0,0,3,7.23s.42.11,1.15.41a37.46,37.46,0,0,1,10.8,6.44c-28,15.27-62.38,9.19-84.32-1.25-.6-.28-1.18-.56-1.76-.82-16.86-7.57-29.55-6.64-38.17-3.63,11.83-23.54,33.74-41.31,60.85-48.76,30.58-8.41,62-2.21,84.9,16.55l.08,0c1,.82,2,1.66,3,2.53A8.61,8.61,0,0,1,357.91,371.53Z"/><path class="cls-3" d="M60.73,306.71A35.33,35.33,0,0,1,51.3,300a31.64,31.64,0,0,0-1.23,8.9,26.7,26.7,0,0,0,1.74,9.36l.87,2.15a2.32,2.32,0,0,0,1.63,1.24L58,319.89C61.28,315.54,61.13,309.79,60.73,306.71Zm297.82-19.17c1.34-.84,2.86-1.87,4.52-3.09a77.91,77.91,0,0,0,12-10.62c3.9-4.39,6.52-8.95,5.62-12.54a4.89,4.89,0,0,0-2.46-3.24c-4.64-2.76-14.55-2-22.33,0v0a3.27,3.27,0,0,1-1,.18,4.88,4.88,0,0,1-2.18-9.38c4.73-2.24,8.16-4.89,10.21-7.91a6.62,6.62,0,0,0,.94-5.57,6.88,6.88,0,0,0-3.75-4.44c-1.86-.88-3.66-1.81-5.37-2.81a90.86,90.86,0,0,1-28.38-26.21c-2.85-4.32-5.92-8.5-9.08-12.38a0,0,0,0,1,0,0c-.13-.18-.27-.37-.38-.56a.19.19,0,0,1-.08-.14,3.73,3.73,0,0,1-.2-.4,3.28,3.28,0,0,1-.21-.65s0,0,0-.05a2.1,2.1,0,0,1-.06-.24c-24-90.46-62-133.94-81.75-141.1-4.49-1.64-8.08-1.53-10.68.33-13.9,9.84-23.65,52.23-27.28,73.41a189.64,189.64,0,0,1,70.85,18.17c-1.19-3.28-2.43-6.53-3.77-9.74-2.79-7.12-6-14-9.32-20.9s-7.15-13.46-11.15-19.94c-2-3.24-4.14-6.41-6.4-9.47a101,101,0,0,0-7-8.85l-.14-.17a2.44,2.44,0,0,1,3.37-3.5,108,108,0,0,1,16.5,17.54,180.09,180.09,0,0,1,13.2,19.9c2,3.45,3.84,7,5.54,10.59s3.41,7.17,5,10.84,2.81,7.43,4.25,11.13c1.25,3.74,2.43,7.53,3.51,11.33a.09.09,0,0,1,0,0,.78.78,0,0,1,0,.22,4.82,4.82,0,0,1-.5,3.65,4.89,4.89,0,0,1-6.67,1.81c-25-14.39-53.57-22.07-82.1-23.15a4.74,4.74,0,0,1-2.28-.07,179.51,179.51,0,0,0-34,2.27,0,0,0,0,1,0,0,4.84,4.84,0,0,1-2.48.41c-22.36,4-43.62,12.23-61.81,24.73a122.93,122.93,0,0,0-22,19.16c-.16.18-.32.36-.51.55-2.21,2.49-4.3,5.05-6.23,7.7C44.54,208.71,37.66,239.13,43,273a4.92,4.92,0,0,1-1.16,4c-.2.24-20.95,24.59-13,53.52a61.55,61.55,0,0,0,12.85,23.56l0,0c12.82,15.18,33.95,28.59,63.18,40.17,3.77,1.5,7.69,3,11.75,4.4,2.56.91,5.19,1.82,7.86,2.7a71.21,71.21,0,0,1,7.32,2.88,78.28,78.28,0,0,1,22.66,15.56,82.62,82.62,0,0,1,9-15.11c1.22-1.62,2.48-3.2,3.8-4.73a82.87,82.87,0,0,1,9.75-9.43,106.55,106.55,0,0,1,29.27-17.19c13.84-19.78,34.74-34.54,59.59-41.35a108.6,108.6,0,0,1,56.81-.48,101.52,101.52,0,0,1,18.5,7c26.54-22.94,33.39-34.33,33.19-37.5a4.94,4.94,0,0,0-.81-2.64,3.44,3.44,0,0,0-.74-.74c-2.65-2-8.38-1.66-10.75-1.18a5,5,0,0,1-4.85-1.82,5.39,5.39,0,0,1-.66-1.15A4.89,4.89,0,0,1,358.55,287.54Zm-233.8,60.9A26.49,26.49,0,0,1,121.94,376a26.11,26.11,0,0,1-9.36,7.71,24.61,24.61,0,0,1-9.27,2.44,26.14,26.14,0,0,1-6.46-.36l-.53-.11a25.58,25.58,0,0,1-15.19-9.49,26.51,26.51,0,0,1-4.52-8.89C52.7,363,46.35,341.17,46.24,327.88A12.11,12.11,0,0,1,44,324.77c-.52-1.14-.87-2-1.3-3.07a37,37,0,0,1-2.36-12.8,42.69,42.69,0,0,1,1.87-12.59,49.26,49.26,0,0,1,2.22-5.9,41.76,41.76,0,0,1,3.07-5.76,4.56,4.56,0,0,1,2.07-1.75,13.44,13.44,0,0,1,4.5-2.37,4.55,4.55,0,0,1,1.43-1.32l0,0a63.56,63.56,0,0,0,8.75-6,30.11,30.11,0,0,1,20.22-50.44,12.61,12.61,0,0,1,1.37,0c-1.33-4.93-3.94-10-6.52-15.39a2.5,2.5,0,0,1,3.9-2.95,45.83,45.83,0,0,1,8.07,9.24,32,32,0,0,1,5,12.17,26.56,26.56,0,0,1,.37,3.45,29.31,29.31,0,0,1-.11,3.53c-.18,2.12-.44,4.17-.82,6.23a70.4,70.4,0,0,1-3.15,12.06A67.7,67.7,0,0,1,80,272.74q-2.13,2.34-4.41,4.54c-1.2,1-2.43,2.1-3.66,3.08a44.08,44.08,0,0,1,4.71,1.34c14,4.74,23.2,14.82,20.59,22.48-1.62,4.78-7.47,7.49-15,7.71a43.8,43.8,0,0,1-15-2.44,48.26,48.26,0,0,1-6.45-2.74A35.33,35.33,0,0,1,51.3,300a31.64,31.64,0,0,0-1.23,8.9,26.7,26.7,0,0,0,1.74,9.36l.87,2.15a2.32,2.32,0,0,0,1.63,1.24L58,319.89l3.92-1.8,0,0a4.9,4.9,0,0,1,6,1.64l.24.36A94.17,94.17,0,0,0,79.29,332.6a37.54,37.54,0,0,0,6.15,5,31.89,31.89,0,0,0,7,3.41,31.31,31.31,0,0,0,15.27,1.31A30.7,30.7,0,0,0,112.8,341a27.9,27.9,0,0,0,3.7-1.51,34.05,34.05,0,0,0,5.84-3.54l.07-.06a2.48,2.48,0,0,1,3.55,3.35,25.44,25.44,0,0,1-3.92,4.61A33.15,33.15,0,0,1,124.75,348.44ZM161.12,307a30.14,30.14,0,1,1,28.13-32A30.13,30.13,0,0,1,161.12,307Zm28.63-78.79a2.51,2.51,0,0,1-1.91,1.18l-.26,0c-3,.27-5.69.34-8.46.67s-5.47.63-8.2,1.08l-8.39,1.4c-2.81.45-5.76,1-8.74,1.16l-.24,0a2.55,2.55,0,0,1-1.88-4.43,29.46,29.46,0,0,1,8.36-5.18,38.24,38.24,0,0,1,9.4-2.62,36.09,36.09,0,0,1,10-.11,25.29,25.29,0,0,1,9.55,3.3A2.51,2.51,0,0,1,189.75,228.2Zm-129,78.51A35.33,35.33,0,0,1,51.3,300a31.64,31.64,0,0,0-1.23,8.9,26.7,26.7,0,0,0,1.74,9.36l.87,2.15a2.32,2.32,0,0,0,1.63,1.24L58,319.89C61.28,315.54,61.13,309.79,60.73,306.71Z"/><path class="cls-6" d="M157.2,246.83a30.14,30.14,0,1,1-28.1,32A30.15,30.15,0,0,1,157.2,246.83Z"/><path class="cls-6" d="M179.39,221.41a25.29,25.29,0,0,1,9.55,3.3,2.53,2.53,0,0,1-1.1,4.67l-.26,0c-3,.27-5.69.34-8.46.67s-5.47.63-8.2,1.08l-8.39,1.4c-2.81.45-5.76,1-8.74,1.16l-.24,0a2.55,2.55,0,0,1-1.88-4.43,29.46,29.46,0,0,1,8.36-5.18,38.24,38.24,0,0,1,9.4-2.62A36.09,36.09,0,0,1,179.39,221.41Z"/><path class="cls-6" d="M116.5,339.46a34.05,34.05,0,0,0,5.84-3.54l.07-.06a2.48,2.48,0,0,1,3.55,3.35,25.44,25.44,0,0,1-3.92,4.61,33.15,33.15,0,0,1,2.71,4.62A26.49,26.49,0,0,1,121.94,376a25.33,25.33,0,0,1-18.63,10.15,26.14,26.14,0,0,1-6.46-.36l-.53-.11a26,26,0,0,1-19.71-18.38C52.7,363,46.35,341.17,46.24,327.88A12.11,12.11,0,0,1,44,324.77c-.52-1.14-.87-2-1.3-3.07a37,37,0,0,1-2.36-12.8,42.69,42.69,0,0,1,1.87-12.59,49.26,49.26,0,0,1,2.22-5.9,41.76,41.76,0,0,1,3.07-5.76,4.56,4.56,0,0,1,2.07-1.75,13.44,13.44,0,0,1,4.5-2.37,4.55,4.55,0,0,1,1.43-1.32l0,0a63.56,63.56,0,0,0,8.75-6,30.11,30.11,0,0,1,20.22-50.44,12.61,12.61,0,0,1,1.37,0c-1.33-4.93-3.94-10-6.52-15.39a2.5,2.5,0,0,1,3.9-2.95,45.83,45.83,0,0,1,8.07,9.24,32,32,0,0,1,5,12.17,26.56,26.56,0,0,1,.37,3.45,29.31,29.31,0,0,1-.11,3.53c-.18,2.12-.44,4.17-.82,6.23a70.4,70.4,0,0,1-3.15,12.06A67.7,67.7,0,0,1,80,272.74q-2.13,2.34-4.41,4.54c-1.2,1-2.43,2.1-3.66,3.08a44.08,44.08,0,0,1,4.71,1.34c14,4.74,23.2,14.82,20.59,22.48s-16,10-30,5.27A40.29,40.29,0,0,1,51.3,300a31.64,31.64,0,0,0-1.23,8.9,26.7,26.7,0,0,0,1.74,9.36l.87,2.15a2.32,2.32,0,0,0,1.63,1.24l7.6-3.51,0,0a4.9,4.9,0,0,1,6,1.64l.24.36A94.17,94.17,0,0,0,79.29,332.6a37.54,37.54,0,0,0,6.15,5,31.89,31.89,0,0,0,7,3.41,31.31,31.31,0,0,0,15.27,1.31A30.7,30.7,0,0,0,112.8,341,27.9,27.9,0,0,0,116.5,339.46Zm-2.34,30.64a16.65,16.65,0,0,0,1.78-17.41,22.91,22.91,0,0,0-2-3.42,32,32,0,0,1-4.18,1.62,35.6,35.6,0,0,1-20.5-.11,34.46,34.46,0,0,1-5.78-2.26,90.65,90.65,0,0,1,1.88,12.63,16.3,16.3,0,0,0,12.78,15l.42.07A15.69,15.69,0,0,0,114.16,370.1ZM75.07,356.9a78.39,78.39,0,0,0-4.82-18.34c-1.7-1.73-3.29-3.53-4.81-5.42-1.12-1.42-2.24-2.82-3.32-4.36L57.34,331a3.89,3.89,0,0,1-1.05.33C57.11,339,60.63,352.53,75.07,356.9Z"/><path class="cls-6" d="M243.06,466.1c6.18,2.44,12.62,3.15,17.93,1.53,17-5.18,15.11-25.82,13.81-33.38-6.67-1.64-13.11-3.57-19-5.56C257.4,440.82,255.6,456.74,243.06,466.1ZM281,147a.09.09,0,0,1,0,0,.78.78,0,0,1,0,.22,4.82,4.82,0,0,1-.5,3.65,4.89,4.89,0,0,1-6.67,1.81c-25-14.39-53.57-22.07-82.1-23.15a4.74,4.74,0,0,1-2.28-.07,179.51,179.51,0,0,0-34,2.27,0,0,0,0,1,0,0,4.84,4.84,0,0,1-2.48.41c-22.36,4-43.62,12.23-61.81,24.73a122.93,122.93,0,0,0-22,19.16c-.16.18-.32.36-.51.55C46.17,202.14,37.08,235.45,43,273a4.92,4.92,0,0,1-1.16,4c-.2.24-20.95,24.59-13,53.52,7.49,27.26,37,50.19,87.81,68.15,2.56.91,5.19,1.82,7.86,2.7a78,78,0,0,1,30,18.44,82.47,82.47,0,0,1,22.58-29.27,106.55,106.55,0,0,1,29.27-17.19c13.84-19.78,34.74-34.54,59.59-41.35,26.11-7.17,52.81-4.65,75.31,6.52,26.54-22.94,33.39-34.33,33.19-37.5a4.14,4.14,0,0,0-1.55-3.38c-2.65-2-8.38-1.66-10.75-1.18a4.89,4.89,0,0,1-3.57-8.93c8.09-5.06,24.16-18.1,22.11-26.25a4.89,4.89,0,0,0-2.46-3.24c-4.64-2.76-14.55-2-22.33,0v0a3.27,3.27,0,0,1-1,.18,4.88,4.88,0,0,1-2.18-9.38c4.73-2.24,8.16-4.89,10.21-7.91a6.62,6.62,0,0,0,.94-5.57,6.88,6.88,0,0,0-3.75-4.44c-21.07-9.91-33.26-28.24-33.75-29-2.85-4.32-5.92-8.5-9.08-12.38a0,0,0,0,1,0,0c-.13-.18-.27-.37-.38-.56a.19.19,0,0,1-.08-.14,3.73,3.73,0,0,1-.2-.4,3.28,3.28,0,0,1-.21-.65s0,0,0-.05a2.1,2.1,0,0,1-.06-.24c-24-90.46-62-133.94-81.75-141.1-4.49-1.64-8.08-1.53-10.68.33-13.9,9.84-23.65,52.23-27.28,73.41a189.64,189.64,0,0,1,70.85,18.17c-1.19-3.28-2.43-6.53-3.77-9.74-2.79-7.12-6-14-9.32-20.9s-7.15-13.46-11.15-19.94c-2-3.24-4.14-6.41-6.4-9.47a101,101,0,0,0-7-8.85l-.14-.17a2.44,2.44,0,0,1,3.37-3.5,108,108,0,0,1,16.5,17.54,180.09,180.09,0,0,1,13.2,19.9c2,3.45,3.84,7,5.54,10.59s3.41,7.17,5,10.84,2.81,7.43,4.25,11.13C278.75,139.43,279.93,143.22,281,147Zm60,380a40.46,40.46,0,0,1,7.95-11.3,2.48,2.48,0,0,1,4,2.81l-.06.15A71.85,71.85,0,0,0,348.78,530a98.82,98.82,0,0,0-2.2,11.77c-.47,4-.7,8-.78,12.08,0,.51,0,1,0,1.54A169.3,169.3,0,0,0,362,548.43,131.48,131.48,0,0,0,382.8,536a98.49,98.49,0,0,0,17.55-16.58,82.09,82.09,0,0,0,12.43-20.82,2.44,2.44,0,0,1,4.63,1.54,75.42,75.42,0,0,1-11,23.81,94.93,94.93,0,0,1-17.86,19.36,109.34,109.34,0,0,1-17,11.66,44.54,44.54,0,0,1,4.94,34,1,1,0,0,0,.15.8.94.94,0,0,0,.68.39c27.38,2.55,52.9-3,60.37-4.79,9.45-22.24,8.79-44.68,7.52-56.28a34.94,34.94,0,0,0-5.41-15c-11.5-18.3-19.13-41.07-23.23-55.45l-.31.1a133.25,133.25,0,0,1-33,5,2.44,2.44,0,0,1-2.53-2.38,2.47,2.47,0,0,1,2-2.48,232.82,232.82,0,0,0,30.87-8.46c1.12-.44,2.24-.85,3.36-1.32,1-.38,1.91-.76,2.87-1.17h0a114.89,114.89,0,0,0,21.71-11.45,71.06,71.06,0,0,0,21-21.87,57.08,57.08,0,0,0,8.41-28.39,61.18,61.18,0,0,0-1.53-14.82,65.26,65.26,0,0,0-2.23-7.12c-.47-1.15-.86-2.35-1.38-3.46l-1.68-3.35a28.9,28.9,0,0,0-1.88-3.23c-.68-1-1.29-2.12-2-3.12a55.26,55.26,0,0,0-4.76-5.77A58.9,58.9,0,0,0,444,335.77a64.09,64.09,0,0,0-28.3-9.3,77.3,77.3,0,0,0-22.84,1.66,75.91,75.91,0,0,1,10.9,17c4,8.8,5.69,19.29,3.52,29.11s-7.37,18.43-13.59,25.54a114.1,114.1,0,0,1-19.85,17.39c-10.79,23.5-35.06,44-63.1,52.21A73.38,73.38,0,0,1,295,472.09c-1.22.08-2.44.14-3.67.14-11.78,44.6-54,52.25-69.06,53.53q.58,2.68.94,5.38a105.46,105.46,0,0,1,.73,17.66,108.93,108.93,0,0,0,34,13,241.23,241.23,0,0,1,5.22-34.16,2.43,2.43,0,0,1,3-1.83,2.49,2.49,0,0,1,1.91,2.22c1.37,17.91-.47,35.54-1.62,53.25-.15,2.21-.35,4.4-.42,6.61s-.33,4.72-.71,7.15a35.61,35.61,0,0,1-5.44,14.53,8.3,8.3,0,0,0-1.48,2.94,27.38,27.38,0,0,0,5.23,1.25c2,.29,4.05.52,6.14.65a183.08,183.08,0,0,0,25.73-.45c4.28-.36,8.56-.86,12.73-1.54,2.08-.36,4.14-.74,6.06-1.23a25.09,25.09,0,0,0,4.92-1.67c2-1.16,4.58-4.41,6.52-7.8a78.43,78.43,0,0,0,5.19-11.18,99.81,99.81,0,0,0,3.72-12l.66-3,.47-3c.06-.91.26-2,.24-2.76l0-1.18a1.73,1.73,0,0,1-.07-.61l-.14-.7a100.29,100.29,0,0,1-.52-13.65,82.63,82.63,0,0,1,1.49-13.47A60.85,60.85,0,0,1,341.05,527.05ZM69.27,91.61A147.93,147.93,0,0,1,84.62,99.5,157.77,157.77,0,0,1,99.08,109a123.87,123.87,0,0,1,13.41,11.15,86.34,86.34,0,0,1,9.25,10.39h0a167.85,167.85,0,0,1,21.36-6.22C114.32,97.83,69.72,64.72,53.47,72.83,38.53,80.3,51.71,128.68,67,164.37a136.6,136.6,0,0,1,18.77-15.48,153.74,153.74,0,0,1,26.15-14.41c-2.12-2.41-4.29-4.82-6.57-7.12-3.85-3.84-7.72-7.7-11.88-11.32S85,109,80.59,105.59,71.59,99,67,96l-.06,0a2.45,2.45,0,0,1,2.32-4.29Zm78.81,389.58c0-.1,0-.2,0-.3.18-1.77.4-3.55.65-5.3a86.28,86.28,0,0,1,1.84-45.82l-2.44-2.46a68.17,68.17,0,0,0-26.72-16.65c-1.81-.59-3.56-1.18-5.31-1.8-3.71,3.2-11.83,11.2-15.26,22.44-2.32,7.67-2.07,13.34.8,16.87,4.08,5,13.23,5.36,16.42,5.08a4.9,4.9,0,0,1,3.47,1C122.39,454.92,137.37,466.78,148.08,481.19Zm68,27.72a12.41,12.41,0,0,1,.75,1.39c18.32-9.08,24.28-26.07,26.13-33.86a48.92,48.92,0,0,1-13-6.13A47.12,47.12,0,0,1,215.13,455a34.43,34.43,0,0,1-5-17.28c-2.95-2.43-5.76-4.92-8.37-7.39a32.24,32.24,0,0,1-9.18-15.05l-1.53,1.35a96.84,96.84,0,0,0-7.44,7.59,98.67,98.67,0,0,0-12.31,17.33,104.88,104.88,0,0,0-12.42,40.5q-2.41,22.05-2.92,44.25c-.2,7.38-.18,14.78-.09,22.21s.33,14.87.06,22.73a53.38,53.38,0,0,1-.57,6.18l-.24,1.61-.47,1.77a17.55,17.55,0,0,1-.57,1.8c-.28.65-.6,1.28-.93,1.92l-.69,1.34-.47.81a14,14,0,0,0-.53,1.58,5.66,5.66,0,0,0-.18,1.36c.1.36,0,.78.22,1.09.28,1.33,2.24,2.91,5,4a35.74,35.74,0,0,0,9.47,2.08c6.9.68,14,.24,21.51-.25l11.19-.69,1.39-.09,1-.08a8.81,8.81,0,0,0,1.68-.43,8.26,8.26,0,0,0,3-1.81,9,9,0,0,0,2-2.83c.08-.27.21-.55.29-.82s.16-.53.27-1l.64-2.66c.79-3.58,1.59-7.15,2.21-10.75a196.13,196.13,0,0,0,2.73-21.65,169.51,169.51,0,0,0,0-21.62c-.14-2.61-.36-5.19-.6-7.77-.15-1.44-.29-2.85-.48-4.28,0-.39-.07-.76-.12-1.15-.22-1.87-.49-3.71-.78-5.6-.11-.88-.24-1.77-.4-2.67v0a2.45,2.45,0,0,1,2-2.85A2.51,2.51,0,0,1,216.05,508.91Zm263.86-140a67.81,67.81,0,0,1-8.65,51,81.23,81.23,0,0,1-24.19,24.7,102.18,102.18,0,0,1-21.26,10.84c3.88,13.73,11.23,35.9,22.24,53.4A45,45,0,0,1,454.91,528c1.41,13,2.09,38.48-9.28,63.51a4.86,4.86,0,0,1-3.11,2.68,200.1,200.1,0,0,1-37.73,6,179.73,179.73,0,0,1-28.4-.3A10.71,10.71,0,0,1,367,586.65c1.71-7.07,2.23-17.19-4.18-27.18a133,133,0,0,1-16.36,6.29l0,0c.14.65.23,1.31.32,2s0,1.42,0,2.16c0,1.44-.17,2.58-.26,3.88l-.52,3.61-.68,3.5a110.13,110.13,0,0,1-3.94,13.48,78.84,78.84,0,0,1-5.87,13,43,43,0,0,1-4.27,6.28,24.29,24.29,0,0,1-6.55,5.81,34.35,34.35,0,0,1-7.6,2.75c-2.36.6-4.66,1.06-7,1.46-4.6.76-9.15,1.28-13.7,1.68a182.65,182.65,0,0,1-27.49.17c-2.34-.16-4.68-.45-7.08-.83a34.84,34.84,0,0,1-7.68-2,15,15,0,0,1-2.28-1.17c-.44-.29-.87-.58-1.28-.9a12.16,12.16,0,0,1-1.4-1.45,8,8,0,0,1-1.22-2.25l-.24-.62c-.06-.19-.06-.26-.1-.41s-.1-.48-.14-.72a13.46,13.46,0,0,1-.1-3,17.61,17.61,0,0,1,3.55-8.7,25,25,0,0,0,4-10.16c.34-1.93.57-4,.73-6.09s.37-4.43.57-6.63c.3-3,.54-6,.81-9a121.75,121.75,0,0,1-33.74-11.88c-.5,5.86-1.27,11.65-2.26,17.42-.62,3.76-1.4,7.51-2.21,11.23l-.63,2.79c-.09.42-.27,1.07-.45,1.69s-.41,1.2-.64,1.81a19.16,19.16,0,0,1-4.37,6.28,18.57,18.57,0,0,1-6.49,4.05,18.93,18.93,0,0,1-3.71,1c-.6.07-1.38.17-1.82.2l-1.39.09-11.19.78c-7.31.52-15.25,1.14-23.24.41a45.9,45.9,0,0,1-12.37-2.67,23.66,23.66,0,0,1-6.3-3.55,19.76,19.76,0,0,1-2.88-2.9,14.72,14.72,0,0,1-2.09-3.91,15,15,0,0,1-.88-4.37,17.37,17.37,0,0,1,.44-4.19,20.42,20.42,0,0,1,1.25-3.73c.28-.56.59-1.09.87-1.65l.46-.79a1.75,1.75,0,0,0,.13-.35,3.88,3.88,0,0,1,.28-.58c.11-.23.15-.63.26-.9l.25-.95.17-1.14a44,44,0,0,0,.46-5c.25-7.07,0-14.6,0-22.09s-.08-15,.11-22.61q.36-14.34,1.52-28.62c-6.74-14.65-24.57-30.11-29.67-34.34-4.72.07-16.21-.68-22.78-8.72-5.08-6.18-6-14.92-2.6-25.91,3.17-10.42,9.46-18.37,14.3-23.32-49.47-18.81-78.5-43-86.45-72.13-8-29.49,8.41-53.88,13.63-60.64C27.43,233.56,36.8,199,59.74,172.16c-9.33-21-39.09-93.86-10.63-108.08C77,50.14,141.3,109,155,122a191.1,191.1,0,0,1,31.68-2.29c2.68-16.34,12.49-67.59,31.5-81,3.67-2.62,10.08-5,19.63-1.55,25.88,9.37,64.31,59.37,87.66,147,3.12,3.91,6.16,8,9,12.34.13.19,11.26,16.85,29.75,25.54A16.61,16.61,0,0,1,371,246.45a.36.36,0,0,0-.07.1c4.37.16,8.76,1,12.3,3.12a14.73,14.73,0,0,1,6.92,9.24c2.68,10.7-6.94,21.61-15.36,28.8a15.14,15.14,0,0,1,4,2.16,14,14,0,0,1,5.39,10.52c.16,2.51.51,7.83-11.37,21.34a246.56,246.56,0,0,1-22.52,21.89,94.92,94.92,0,0,1,12.7,9.63,18.29,18.29,0,0,1,5.95,12c8.83,9.12,12.33,21.5,10.07,35.36a79.14,79.14,0,0,0,7.34-7.31c5.47-6.26,9.75-13.44,11.38-21.14a37,37,0,0,0-2.88-23.07c-3.37-7.37-8.56-14.14-14.5-20.26v0a4.92,4.92,0,0,1-.81-5.63,4.62,4.62,0,0,1,1-1.31,4.7,4.7,0,0,1,1.83-1.1,88.59,88.59,0,0,1,34.1-4.67,72.41,72.41,0,0,1,33.29,10.58,69.54,69.54,0,0,1,23.84,25.73l2,4c.62,1.33,1.11,2.74,1.66,4.1A74.33,74.33,0,0,1,479.91,368.93ZM368.69,402.39c1.69-7.14,2.27-16.68-2.82-25.19-.91,1.39-1.86,2.72-2.82,4a16.24,16.24,0,0,1-3.84,20l-.21.19a16.73,16.73,0,0,1-9.66,3.91,16.08,16.08,0,0,1-9.77-2.5,85.92,85.92,0,0,1-39.12,11.81c-21.09,1.38-41.83-3.91-57-11.14-25.39-12.08-38.69-1.49-41.54,1.27a5.32,5.32,0,0,0-.28,1.34,3.54,3.54,0,0,0-.11,1,15.6,15.6,0,0,0,.26,4.25,22.27,22.27,0,0,0,6.77,11.92c.94.89,2.14,2,3.57,3.27,2.19-6.24,6.25-12.29,12.13-17.91a4.9,4.9,0,0,1,5.53-.87c.23.13,24.2,11.71,50.32,17.7a4.92,4.92,0,0,1,3.64,3.53c2.18,8.36,3.15,22.1-2.13,33q2.81.33,5.61.44c.22,0,.44,0,.66,0A63.92,63.92,0,0,0,308,460c28-8.17,48.4-28.45,57.12-47.41a5.38,5.38,0,0,1,.24-.55,58.1,58.1,0,0,0,2.67-7.11.42.42,0,0,0,0-.15C368.3,403.93,368.49,403.16,368.69,402.39Zm-10.78-30.86a8.61,8.61,0,0,0-1.45-11c-23.13-20.73-56-27.89-87.94-19.12-27.11,7.45-49,25.22-60.85,48.76,8.9-3.1,22.19-4,39.93,4.45,21.94,10.44,56.35,16.52,84.32,1.25C325.5,390.56,320,389,320,389a4.86,4.86,0,0,1-3-7.23,40.8,40.8,0,0,1,20.51-17.4,4.85,4.85,0,0,1,3.34.1,58.29,58.29,0,0,1,15.45,9.37C356.86,373.09,357.37,372.32,357.91,371.53Zm-2.77,17.32a6.67,6.67,0,0,0-2.18-5A57.55,57.55,0,0,0,339,374.33a32.37,32.37,0,0,0-10.24,7.79A52.28,52.28,0,0,1,343.13,393l.15.13a.4.4,0,0,0,.11.12,0,0,0,0,0,0,0l0,0v0a.41.41,0,0,1,.16.16.05.05,0,0,0,0,.05s0,0,0,0a6.51,6.51,0,0,0,8.95.32,1.33,1.33,0,0,0,.24-.19A6.39,6.39,0,0,0,355.14,388.85Zm-73.83,82.93c-2.11-.2-4.24-.5-6.37-.88A29.13,29.13,0,0,1,263.85,477,31.38,31.38,0,0,1,257,478.2a38.13,38.13,0,0,1-4.41,0c-1.9,8.48-7.74,25.83-25.1,37.22C243.09,513.12,271.64,504.4,281.31,471.78Zm-48.08-11.16c16.91-8.06,13.57-28.85,11.92-35.75-7.34-2.77-13.11-5.31-16.49-6.85-9.42,10.28-11.23,21.57-5.08,32.06A36.35,36.35,0,0,0,233.23,460.62ZM193,400.44a97.43,97.43,0,0,1,4.76-12.21,100.34,100.34,0,0,0-14.46,9.88,74.39,74.39,0,0,0-26.49,49.36,115.64,115.64,0,0,1,5.48-11,107.75,107.75,0,0,1,13.79-19,114.91,114.91,0,0,1,8.4-8.26,96,96,0,0,1,7.7-6,19.71,19.71,0,0,1,.74-2.52C192.9,400.61,192.94,400.51,193,400.44Z"/><path class="cls-2" d="M375,273.83c-25.1-8.26-60.13,1.25-78.58,7.55a2.62,2.62,0,0,1-2.77-4.25c5.13-5.82,8.64-12.81-.63-15.31-12.07-3.26-33.29,3-44.69,6.91a2.63,2.63,0,0,1-3-4c54.27-82.39-32.24-113.16-105-62.89a3.49,3.49,0,0,1-5-4.62c8.51-15.15,16.44-34.35-1.8-29.09s-25.3,20.67-28.09,31.58a3.49,3.49,0,0,1-6.46.79C88,179.74,73.42,180,62.54,184.37c1.93-2.65,4-5.21,6.23-7.7.19-.19.35-.37.51-.55a122.93,122.93,0,0,1,22-19.16c18.19-12.5,39.45-20.75,61.81-24.73a4.84,4.84,0,0,0,2.48-.41,0,0,0,0,0,0,0,179.51,179.51,0,0,1,34-2.27,4.74,4.74,0,0,0,2.28.07c5,.19,10,.57,15,1.2,4.66.56,9.34,1.3,13.95,2.2v0A173.73,173.73,0,0,1,257,144.28c1.14.49,2.3,1,3.41,1.51,4.49,2.06,8.9,4.32,13.17,6.79h0l0,0a5.19,5.19,0,0,0,6.09-.55,4.9,4.9,0,0,0,1.36-4.76.78.78,0,0,0,0-.22.09.09,0,0,0,0,0c-1.08-3.8-2.26-7.59-3.51-11.33-1.44-3.7-2.69-7.46-4.25-11.13s-3.17-7.29-5-10.84-3.57-7.14-5.54-10.59a180.09,180.09,0,0,0-13.2-19.9A108,108,0,0,0,233,65.69a2.44,2.44,0,0,0-3.37,3.5l.14.17c.6.67,1.19,1.36,1.77,2.09s1.2,1.44,1.79,2.18c1.17,1.49,2.32,3,3.4,4.58,2.26,3.06,4.38,6.23,6.4,9.47,4,6.48,7.79,13.11,11.15,19.94s6.53,13.78,9.32,20.9c1.34,3.21,2.58,6.46,3.77,9.74-1.85-.88-3.69-1.74-5.58-2.57-1.51-.69-3-1.32-4.56-1.93l-.78-.32c-1.51-.61-3-1.2-4.57-1.76-1.73-.67-3.46-1.27-5.21-1.84-1.48-.51-3-1-4.43-1.42-.5-.17-1-.33-1.5-.47-1.55-.49-3.07-.93-4.64-1.34a.54.54,0,0,0-.2,0c-1.77-.52-3.54-1-5.33-1.37s-3.63-.86-5.44-1.24c-1.42-.32-2.81-.6-4.22-.85q-7-1.34-14-2.12c-3.46-.41-6.93-.7-10.39-.91.54-3.22,1.23-6.92,2.07-10.94,0,0,0-.05,0-.07,4.62-22.37,13.42-54,25.19-62.4a7.32,7.32,0,0,1,2.89-1.24,13.81,13.81,0,0,1,7.79.91c19.72,7.16,57.77,50.64,81.75,141.1a2.1,2.1,0,0,0,.06.24s0,0,0,.05a3.28,3.28,0,0,0,.21.65,3.73,3.73,0,0,0,.2.4.19.19,0,0,0,.08.14c.11.19.25.38.38.56a0,0,0,0,0,0,0c3.16,3.88,6.23,8.06,9.08,12.38.49.78,12.68,19.11,33.75,29a6.83,6.83,0,0,1,3.42,3.5,7,7,0,0,1,.33.94,6.62,6.62,0,0,1-.94,5.57c-2,3-5.48,5.67-10.21,7.91a4.93,4.93,0,0,0-2.3,7.15,4.73,4.73,0,0,0,4.48,2.23,3.27,3.27,0,0,0,1-.18v0c7.78-2,17.69-2.77,22.33,0a4.89,4.89,0,0,1,2.46,3.24C381.56,264.88,378.94,269.44,375,273.83Z"/><path class="cls-3" d="M267.41,138.26c-1.85-.88-3.69-1.74-5.58-2.57s-3.55-1.53-5.34-2.25c-1.51-.61-3-1.2-4.57-1.76-1.73-.65-3.46-1.27-5.21-1.84-1.46-.52-3-1-4.43-1.42-.5-.17-1-.33-1.5-.47-1.55-.46-3.1-.92-4.64-1.34a.54.54,0,0,0-.2,0c-1.77-.5-3.54-1-5.33-1.37s-3.63-.84-5.44-1.24c-1.42-.32-2.81-.6-4.22-.85q-7-1.34-14-2.12c-3.46-.41-6.93-.7-10.39-.91.54-3.22,1.23-6.92,2.07-10.94,7.21-17.33,15.48-25,15.48-25s-4.64-5.89-2.73-8.9,8.67.75,8.67.75-6.71-12-2.86-16.41a4.06,4.06,0,0,1,2.17-1.3c4.06-.87,10.53,7.47,10.53,7.47a2.42,2.42,0,0,0-.22,3.44l.14.17c.6.67,1.19,1.36,1.77,2.09s1.2,1.44,1.79,2.18c1.17,1.49,2.32,3,3.4,4.58,2.26,3.06,4.38,6.23,6.4,9.47,4,6.48,7.79,13.11,11.15,19.94s6.53,13.78,9.32,20.9C265,131.73,266.22,135,267.41,138.26Z"/><path class="cls-7" d="M267.41,138.26a177.64,177.64,0,0,0-27.81-10.67A183.92,183.92,0,0,0,221,123.12c1.72-22,11.58-39.1,15.58-45.24l.24.33c2.26,3.06,4.38,6.23,6.4,9.47,1.75,2.83,3.46,5.68,5.09,8.58,2.13,3.73,4.17,7.52,6.06,11.36,3.33,6.86,6.53,13.78,9.32,20.9C265,131.73,266.22,135,267.41,138.26Z"/><path class="cls-3" d="M105.32,127.36c-3.85-3.84-7.72-7.7-11.88-11.32-1.16-1-2.33-2-3.5-3h0c-3-2.54-6.14-5-9.3-7.48-1.75-1.31-3.5-2.61-5.3-3.89-2.72-2-5.52-3.93-8.28-5.75l-.06,0a2.46,2.46,0,0,1-.71-3.38s-11-4.84-13.51-.71c-2.36,3.93,5.39,11.67,6.12,12.43-.69-.08-7.31-.94-6.31,3.5,1.09,4.68,9,9.21,9,9.21s-4.13,8-3.47,24.44c2.74,7.88,5.75,15.69,8.87,23,2.71-2.7,5.58-5.29,8.6-7.81,2.15-1.77,4.4-3.49,6.7-5.17,1.14-.83,2.27-1.67,3.45-2.47,0,0,0,0,0,0a153.74,153.74,0,0,1,26.15-14.41C109.77,132.07,107.6,129.66,105.32,127.36Z"/><path class="cls-7" d="M111.89,134.48a150.58,150.58,0,0,0-17.09,8.68c-3.1,1.79-6.1,3.7-9.06,5.73,0,0,0,0,0,0-12-20.08-11.09-40.83-10.43-47.22,1.8,1.28,3.55,2.58,5.3,3.89,3.22,2.48,6.42,5,9.53,7.63,1.12.93,2.23,1.86,3.32,2.82,4.16,3.62,8,7.48,11.88,11.32C107.6,129.66,109.77,132.07,111.89,134.48Z"/><path class="cls-3" d="M470.9,386.22a57.08,57.08,0,0,1-8.41,28.39,71.06,71.06,0,0,1-21,21.87,114.89,114.89,0,0,1-21.71,11.45h0c-1,.41-1.91.79-2.87,1.17-1.12.47-2.24.88-3.36,1.32a232.82,232.82,0,0,1-30.87,8.46,2.47,2.47,0,0,0-2,2.48,2.44,2.44,0,0,0,2.53,2.38c2.1-.07,4.2-.15,6.32-.34a129,129,0,0,0,26.69-4.63l.31-.1c4.1,14.38,11.73,37.15,23.23,55.45a34.94,34.94,0,0,1,5.41,15c1.27,11.6,1.93,34-7.52,56.28a203.16,203.16,0,0,1-31.1,4.87,166.67,166.67,0,0,0,7.78-18.14c2.15-6.09,3.75-12.27,3.75-17.24,0-9.23-3.95-6.84-7.15-3.4a1.82,1.82,0,0,1-3.13-1.44c.67-7.71.68-19.54-5.67-20.35,1.5-1.83,2.92-3.74,4.26-5.71a75.42,75.42,0,0,0,11-23.81,2.44,2.44,0,0,0-4.63-1.54,82.09,82.09,0,0,1-12.43,20.82A98.49,98.49,0,0,1,382.8,536,131.48,131.48,0,0,1,362,548.43c-1.31.65-2.64,1.28-4,1.88-.95.45-1.9.86-2.85,1.26-.62.29-1.24.55-1.86.81-2.46,1-5,2-7.47,3,0,0,0,0,0,0,0-.39,0-.76,0-1.16.05-3,.17-6,.44-9.06.1-1.13.2-2.27.34-3.38a98.82,98.82,0,0,1,2.2-11.77,66.83,66.83,0,0,1,2.86-8.27c.38-1,.83-2,1.28-3l.06-.15a2.48,2.48,0,0,0-4-2.81l0,0a41.25,41.25,0,0,0-7.91,11.27,60.85,60.85,0,0,0-4.27,13.06,82.63,82.63,0,0,0-1.49,13.47,100.29,100.29,0,0,0,.52,13.65l.14.7a1.73,1.73,0,0,0,.07.61l0,1.18c0,.78-.18,1.85-.24,2.76l-.47,3-.66,3a99.81,99.81,0,0,1-3.72,12,78.43,78.43,0,0,1-5.19,11.18c-1.94,3.39-4.52,6.64-6.52,7.8a25.09,25.09,0,0,1-4.92,1.67c-1.92.49-4,.87-6.06,1.23-4.17.68-8.45,1.18-12.73,1.54-2.49.18-5,.37-7.49.46-1.44.07-2.88.14-4.32.19a60.14,60.14,0,0,0,13.37-12.41c14.18-17.26,22.75-42,22.08-50-.41-4.77-2.61-6.22-4.92-6.34a2.75,2.75,0,0,1-2.07-4.24c6.21-9.64,17.45-27.93,15.86-31.62-.66-1.58-2.38-1.64-4.21-1.13a2.82,2.82,0,0,1-3.26-3.87,90.39,90.39,0,0,1,15-23.05,123.42,123.42,0,0,1,53.11-35.39c14.25-4.9,33.37-13.18,41.17-24.22,11.12-15.73,10.95-24.07,6.42-22.82a1.67,1.67,0,0,1-2.15-1.89c1.81-9,5.9-32,1-35.33-3.38-2.33-6.2-.06-8,2.41a1.66,1.66,0,0,1-3-.61c-1.85-9.56-8.52-30.67-31.24-35.9a77.3,77.3,0,0,1,22.84-1.66,64.09,64.09,0,0,1,28.3,9.3,58.9,58.9,0,0,1,11.42,9.58,55.26,55.26,0,0,1,4.76,5.77c.73,1,1.34,2.09,2,3.12a28.9,28.9,0,0,1,1.88,3.23l1.68,3.35c.52,1.11.91,2.31,1.38,3.46a65.26,65.26,0,0,1,2.23,7.12A61.18,61.18,0,0,1,470.9,386.22Z"/><path class="cls-3" d="M213.24,524.3c.24,2.58.46,5.16.6,7.77a169.51,169.51,0,0,1,0,21.62,196.13,196.13,0,0,1-2.73,21.65c-.62,3.6-1.42,7.17-2.21,10.75l-.64,2.66c-.11.5-.19.75-.27,1s-.21.55-.29.82a9,9,0,0,1-2,2.83,8.26,8.26,0,0,1-3,1.81,8.81,8.81,0,0,1-1.68.43l-1,.08-1.39.09-11.19.69c-3.47.22-6.83.44-10.13.54,21.35-14.06,19-46,17.66-56.25a.82.82,0,0,1,1.42-.65c2.26,2.44,5.8,4.27,6.58-7,.73-10.85-1.23-26.56-2.7-36.32a3.19,3.19,0,0,1,5.59-2.54,42,42,0,0,1,7.59,13.4,2.45,2.45,0,0,0-2,2.85v0c.16.9.29,1.79.4,2.67.29,1.89.56,3.73.78,5.6.05.39.1.76.12,1.15C213,521.45,213.09,522.86,213.24,524.3Z"/><path class="cls-3" d="M261.64,534.68c-.18,1-.36,2-.54,2.92-1.44,8-2.36,16.1-3.13,24.16a108.93,108.93,0,0,1-34-13,113,113,0,0,0-.35-14.13c-.08-1.18-.21-2.37-.38-3.53q-.36-2.7-.94-5.38c2.17-.19,4.89-.49,8-1a39.87,39.87,0,0,0,14.8,4.71c6.26.57,6.14,2.1,4.75,3.37a1.6,1.6,0,0,0,.8,2.79A22.79,22.79,0,0,0,261.64,534.68Z"/><path class="cls-3" d="M148.76,475.59c-.25,1.75-.47,3.53-.65,5.3,0,.1,0,.2,0,.3-10.71-14.41-25.69-26.27-26.52-26.92a4.9,4.9,0,0,0-3.47-1c-3.19.28-12.34-.06-16.42-5.08-2.37-2.93-3-7.3-1.78-13.06,3.35,2.72,10.4,6.85,22.25,6.95a34.4,34.4,0,0,1,12.9,2.37c2.47,1,4.86,2.36,6.18,4.05,1.94,2.5.75,3.93-.7,4.72a.54.54,0,0,0,.21,1,32,32,0,0,1,5.81,1.2A85.1,85.1,0,0,0,148.76,475.59Z"/><path class="cls-8" d="M355.14,388.85a6.39,6.39,0,0,1-2.27,4.87,1.33,1.33,0,0,1-.24.19,6.51,6.51,0,0,1-8.95-.32s0,0,0,0a.05.05,0,0,1,0-.05.41.41,0,0,0-.16-.16v0l0,0a0,0,0,0,1,0,0,.4.4,0,0,1-.11-.12l-.15-.13c-.3-.33-.58-.63-.87-.92l9.35-9.46c.44.39.9.78,1.35,1.19A6.67,6.67,0,0,1,355.14,388.85Z"/><circle class="cls-3" cx="173.11" cy="269.14" r="11" transform="translate(-16.41 11.29) rotate(-3.57)"/><path class="cls-3" d="M87.68,234.52A40.35,40.35,0,0,1,83.94,250a8,8,0,0,1,.13-16A7.66,7.66,0,0,1,87.68,234.52Z"/><path class="cls-1" d="M94.8,143.16c6.06-10.31-.29-23.15-4.68-29.94,1.12.93,2.23,1.86,3.32,2.82,4.16,3.62,8,7.48,11.88,11.32,2.28,2.3,4.45,4.71,6.57,7.12A150.58,150.58,0,0,0,94.8,143.16Z"/><path class="cls-1" d="M267.41,138.26a177.64,177.64,0,0,0-27.81-10.67c13.26-6.28,11.76-21,8.66-31.33,2.13,3.73,4.17,7.52,6.06,11.36,3.33,6.86,6.53,13.78,9.32,20.9C265,131.73,266.22,135,267.41,138.26Z"/><path class="cls-1" d="M143.13,124.31c-5,1.13-10,2.46-14.9,4C116.31,97.6,74.57,76.72,64.9,72.23,85.4,76.53,119.55,102.66,143.13,124.31Z"/><path class="cls-1" d="M358.6,287.51c1.33-.84,2.84-1.86,4.47-3.06a77.91,77.91,0,0,0,12-10.62c3.9-4.39,6.52-8.95,5.62-12.54a4.89,4.89,0,0,0-2.46-3.24c-4.64-2.76-14.55-2-22.33,0v0a3.27,3.27,0,0,1-1,.18,4.88,4.88,0,0,1-2.18-9.38c4.73-2.24,8.16-4.89,10.21-7.91a6.62,6.62,0,0,0,.94-5.57,7.64,7.64,0,0,0-.37-.94h0c0-.09-.1-.17-.15-.26s-.15-.29-.23-.44a8.37,8.37,0,0,0-.53-.79l-.27-.33a7.62,7.62,0,0,0-.77-.73,2.52,2.52,0,0,0-.25-.21,6.84,6.84,0,0,0-1.22-.74c-1.19-.56-2.34-1.15-3.48-1.76l-.87-.49a91.2,91.2,0,0,1-29.4-26.77c-2.85-4.32-5.92-8.5-9.08-12.38a0,0,0,0,1,0,0c-.13-.18-.27-.37-.38-.56a.19.19,0,0,1-.08-.14,3.73,3.73,0,0,1-.2-.4,3.28,3.28,0,0,1-.21-.65s0,0,0-.05a2.1,2.1,0,0,1-.06-.24c-24-90.46-62-133.94-81.75-141.1a13.81,13.81,0,0,0-7.79-.91C230.14,47.1,273.3,70.22,303,189.32c0,0,10.68,24.43,29.53,36.81a46.52,46.52,0,0,0,11.69,5.45,7.77,7.77,0,0,1,3.22,13,49.47,49.47,0,0,1-10.64,7.11s-13.83,15.42,13,16.12,2.59,13.76-6.71,19.12c-8,4.59-6.12,14.43,7.65,15.84a3.86,3.86,0,0,1,2.84,5.83c-4.19,7-12.92,15.48-30.87,22.88a101.52,101.52,0,0,1,18.5,7c26.54-22.94,33.39-34.33,33.19-37.5a4.76,4.76,0,0,0-.84-2.63h0a2.15,2.15,0,0,0-.19-.22l-.11-.12a3.89,3.89,0,0,0-.44-.4c-2.65-2-8.38-1.66-10.75-1.18a5,5,0,0,1-4.85-1.82,4.86,4.86,0,0,1-.71-1.29A4.94,4.94,0,0,1,358.6,287.51Z"/><path class="cls-1" d="M167.31,400c-1.32,1.53-2.58,3.11-3.8,4.73a82.62,82.62,0,0,0-9,15.11,78.28,78.28,0,0,0-22.66-15.56C141.39,405.37,153.3,404.72,167.31,400Z"/><path class="cls-1" d="M321.12,389.43a37.46,37.46,0,0,1,10.8,6.44c-28,15.27-62.38,9.19-84.32-1.25-.6-.28-1.18-.56-1.76-.82,16.69,3.64,43.36,7.51,62.4.9A120.12,120.12,0,0,0,321.12,389.43Z"/><path class="cls-1" d="M357.91,371.53c-.54.79-1.05,1.56-1.61,2.33a70.69,70.69,0,0,0-7-5.05c3.07-4,4.56-7.72,4.19-10.81,1,.82,2,1.66,3,2.53A8.61,8.61,0,0,1,357.91,371.53Z"/><path class="cls-1" d="M223.63,450.18a97.5,97.5,0,0,0,16,6,22.41,22.41,0,0,1-6.39,4.48A36.76,36.76,0,0,1,223.63,450.18Z"/><path class="cls-1" d="M274.8,434.25c1.3,7.56,3.16,28.2-13.81,33.38-5.31,1.62-11.75.91-17.93-1.53a29.77,29.77,0,0,0,7.55-8.2C275.38,458.85,274.8,434.25,274.8,434.25Z"/><path class="cls-1" d="M368.69,402.39c-.2.77-.39,1.54-.63,2.34a.42.42,0,0,1,0,.15,58.1,58.1,0,0,1-2.67,7.11,5.38,5.38,0,0,0-.24.55C356.39,431.5,336,451.78,308,460a63.92,63.92,0,0,1-20.16,2.5c-.22,0-.44,0-.66,0q-2.81-.1-5.61-.44c.51-1.09,1-2.2,1.4-3.33,25.66-1.47,64.7-18.59,61.51-37.14-1.62-9.42-8.64-12.64-15.35-13.47a77.65,77.65,0,0,0,10.45-5.29,16.08,16.08,0,0,0,9.77,2.5,16.73,16.73,0,0,0,9.66-3.91l.21-.19a16.24,16.24,0,0,0,3.84-20c1-1.29,1.91-2.62,2.82-4C371,385.71,370.38,395.25,368.69,402.39Z"/><path class="cls-1" d="M355.14,388.85a6.39,6.39,0,0,1-2.27,4.87,1.33,1.33,0,0,1-.24.19,6.51,6.51,0,0,1-5.55,1.49c6.18-6.16-.58-15.24-3.65-18.72a62.56,62.56,0,0,1,8.18,6c.44.39.9.78,1.35,1.19A6.67,6.67,0,0,1,355.14,388.85Z"/><path class="cls-1" d="M281.31,471.78c-4.95,16.73-14.9,27.18-25.52,33.68,9.71-10.36,9.22-22.79,8.32-28.56a28.9,28.9,0,0,0,10.83-6C277.07,471.28,279.2,471.58,281.31,471.78Z"/><path class="cls-1" d="M231.9,498.52c2.81-10.35.44-20.75-2.78-28.79a9.34,9.34,0,0,0,.82.58,48.92,48.92,0,0,0,13,6.13A53.43,53.43,0,0,1,231.9,498.52Z"/><path class="cls-1" d="M372.28,420.28C363,472.5,306.21,479.2,306.21,479.2,291,508.91,259.82,518,246,520.64c17.47-6.23,37.73-19.63,45.32-48.41,1.23,0,2.45-.06,3.67-.14a73.38,73.38,0,0,0,15.74-2.74C337.53,461.53,360.87,442.45,372.28,420.28Z"/><path class="cls-1" d="M437.66,585.37a203.16,203.16,0,0,1-31.1,4.87,171.49,171.49,0,0,1-29.27-.08s20.68-5.12,37-18.06c13.25-10.44,23.7-26,18.14-48.08-9.7-38.72-33.23-55.28-42.94-60.62a129,129,0,0,0,26.69-4.63l.31-.1c4.1,14.38,11.73,37.15,23.23,55.45a34.94,34.94,0,0,1,5.41,15C446.45,540.69,447.11,563.13,437.66,585.37Z"/><path class="cls-1" d="M341.05,527.05a60.85,60.85,0,0,0-4.27,13.06,82.63,82.63,0,0,0-1.49,13.47,100.29,100.29,0,0,0,.52,13.65l.14.7a1.73,1.73,0,0,0,.07.61l0,1.18c0,.78-.18,1.85-.24,2.76l-.47,3-.66,3a99.81,99.81,0,0,1-3.72,12,78.43,78.43,0,0,1-5.19,11.18c-1.94,3.39-4.52,6.64-6.52,7.8a25.09,25.09,0,0,1-4.92,1.67c-1.92.49-4,.87-6.06,1.23-4.17.68-8.45,1.18-12.73,1.54-2.49.18-5,.37-7.49.46-1.44.07-2.88.14-4.32.19a60.14,60.14,0,0,0,13.37-12.41c20.46-12.5,25.72-33.91,29-51.09,4.54-24.22,21.86-34.65,22.95-35.29A41.25,41.25,0,0,0,341.05,527.05Z"/><path class="cls-1" d="M412.78,498.61a82.09,82.09,0,0,1-12.43,20.82A98.49,98.49,0,0,1,382.8,536,131.48,131.48,0,0,1,362,548.43c-1.31.65-2.64,1.28-4,1.88-.95.45-1.9.86-2.85,1.26-.62.29-1.24.55-1.86.81-2.46,1-5,2-7.47,3,0,0,0,0,0,0,0-.39,0-.76,0-1.16.05-3,.17-6,.44-9.06.1-1.13.2-2.27.34-3.38a98.82,98.82,0,0,1,2.2-11.77,66.83,66.83,0,0,1,2.86-8.27C373.16,553.51,412.78,498.61,412.78,498.61Z"/><path class="cls-1" d="M213.84,532.07a169.51,169.51,0,0,1,0,21.62,196.13,196.13,0,0,1-2.73,21.65c-.62,3.6-1.42,7.17-2.21,10.75l-.64,2.66c-.11.5-.19.75-.27,1s-.21.55-.29.82a9,9,0,0,1-2,2.83,8.26,8.26,0,0,1-3,1.81,8.81,8.81,0,0,1-1.68.43l-1,.08-1.39.09-11.19.69c-3.47.22-6.83.44-10.13.54a87.63,87.63,0,0,1-11.38-.29,35.74,35.74,0,0,1-9.47-2.08,11.42,11.42,0,0,1-4.29-2.73c7.46-.09,67.13-3.23,59.24-81.37.16.9.29,1.79.4,2.67.29,1.89.56,3.73.78,5.6.05.39.1.76.12,1.15.19,1.43.33,2.84.48,4.28C213.48,526.88,213.7,529.46,213.84,532.07Z"/><path class="cls-1" d="M148.76,475.59c-.25,1.75-.47,3.53-.65,5.3,0,.1,0,.2,0,.3-10.71-14.41-25.69-26.27-26.52-26.92a4.9,4.9,0,0,0-3.47-1c-3.19.28-12.34-.06-16.42-5.08a10.37,10.37,0,0,1-2.16-5.05c6.11,7.05,18,8.84,32.42,3.79,12.26-4.3,8.4-20,5.14-28.62a69,69,0,0,1,11.09,9l2.44,2.46a87,87,0,0,0-1.84,45.82Z"/><path class="cls-1" d="M261.1,537.6c-1.44,8-2.36,16.1-3.13,24.16a108.93,108.93,0,0,1-34-13,113,113,0,0,0-.35-14.13C231,540,248,549.75,261.1,537.6Z"/><path class="cls-1" d="M470.9,386.22a57.08,57.08,0,0,1-8.41,28.39,71.06,71.06,0,0,1-21,21.87,114.89,114.89,0,0,1-21.71,11.45h0c-1,.41-1.91.79-2.87,1.17-1.12.47-2.24.88-3.36,1.32a232.82,232.82,0,0,1-30.87,8.46S447,440.75,453.58,406c5.78-30.42-13.85-77.48-46.27-79.75A65.2,65.2,0,0,1,444,335.77a58.9,58.9,0,0,1,11.42,9.58,55.26,55.26,0,0,1,4.76,5.77c.73,1,1.34,2.09,2,3.12a28.9,28.9,0,0,1,1.88,3.23l1.68,3.35c.52,1.11.91,2.31,1.38,3.46a65.26,65.26,0,0,1,2.23,7.12A61.18,61.18,0,0,1,470.9,386.22Z"/><path class="cls-1" d="M122.41,335.86l-.07.06a34.05,34.05,0,0,1-5.84,3.54,27.9,27.9,0,0,1-3.7,1.51,30.7,30.7,0,0,1-5.13,1.32A31.31,31.31,0,0,1,92.4,341a31.89,31.89,0,0,1-7-3.41,37.54,37.54,0,0,1-6.15-5,94.17,94.17,0,0,1-11.08-12.54L68,319.7a4.9,4.9,0,0,0-6-1.64l0,0L58,319.89c3.29-4.35,3.14-10.1,2.74-13.18a48.26,48.26,0,0,0,6.45,2.74,43.8,43.8,0,0,0,15,2.44c-1.78,3-1.86,7.47,2.64,13.84C96.31,342,122.41,335.86,122.41,335.86Z"/><path class="cls-1" d="M70.25,338.56a72.56,72.56,0,0,1,3.13,9.71c-6.35-9.11-12.2-10.66-15.86-10.45a38.17,38.17,0,0,1-1.23-6.51,3.89,3.89,0,0,0,1.05-.33l4.78-2.2c1.08,1.54,2.2,2.94,3.32,4.36C67,335,68.55,336.83,70.25,338.56Z"/><path class="cls-1" d="M114.16,370.1a16.08,16.08,0,0,1-6.74,5.21,14.75,14.75,0,0,0,3.09-7.14c.62-5.27-4.21-9.39-9.47-8.68a27.88,27.88,0,0,1-16.13-2.67c-.36-3-.86-5.77-1.42-8.3a34.46,34.46,0,0,0,5.78,2.26,35.6,35.6,0,0,0,20.5.11,32,32,0,0,0,4.18-1.62,22.91,22.91,0,0,1,2,3.42A16.65,16.65,0,0,1,114.16,370.1Z"/><path class="cls-1" d="M197.72,388.23A97.43,97.43,0,0,0,193,400.44c0,.07-.06.17-.08.25a19.71,19.71,0,0,0-.74,2.52,96,96,0,0,0-7.7,6,114.91,114.91,0,0,0-8.4,8.26,107.75,107.75,0,0,0-13.79,19,119,119,0,0,0-5.46,11c.61-1.63,10.13-27.94,21-35.9,7.6-5.56,11.31-14,12.9-18.94C193.17,390.9,195.55,389.45,197.72,388.23Z"/><path class="cls-9" d="M273.58,152.58c-2.72-1.15-118.49-49.13-211,31.79,1.93-2.65,4-5.21,6.23-7.7.19-.19.35-.37.51-.55a122.93,122.93,0,0,1,22-19.16c18.19-12.5,39.45-20.75,61.81-24.73a4.84,4.84,0,0,0,2.48-.41,0,0,0,0,0,0,0,179.51,179.51,0,0,1,34-2.27,4.74,4.74,0,0,0,2.28.07c5,.19,10,.57,15,1.2,4.66.56,9.34,1.3,13.95,2.2v0A173.73,173.73,0,0,1,257,144.28c1.14.49,2.3,1,3.41,1.51C264.9,147.85,269.31,150.11,273.58,152.58Z"/><path class="cls-9" d="M353.42,358c-2.77-1.58-79.71-44.31-145.75,32.21,11.83-23.54,33.74-41.31,60.85-48.76C299.1,333,330.5,339.2,353.42,358Z"/><path class="cls-9" d="M214.38,421.32a34.56,34.56,0,0,0-2.31,5.2c-1.43-1.28-2.63-2.38-3.57-3.27a22.27,22.27,0,0,1-6.77-11.92,15.6,15.6,0,0,1-.26-4.25,3.54,3.54,0,0,1,.11-1,5,5,0,0,1,.2-1.09,2.09,2.09,0,0,0,.08-.25S206.29,417.52,214.38,421.32Z"/><path class="cls-9" d="M245.15,424.87a45.52,45.52,0,0,1,1,5.45,58.66,58.66,0,0,1-14.85-6.11s-11.29,8.21-7.66,26c0,0,0-.07,0-.1-6.15-10.49-4.34-21.78,5.08-32.06C232,419.56,237.81,422.1,245.15,424.87Z"/><path class="cls-9" d="M274.8,434.25a125.71,125.71,0,0,1-18.63-1.74c-.08-1.32-.21-2.59-.37-3.82C261.69,430.68,268.13,432.61,274.8,434.25Z"/><path class="cls-9" d="M192.1,416.17s-40,36.68-31.64,152.75a24.55,24.55,0,0,1-5.06,16.88,16.27,16.27,0,0,1-4.09,3.83,5.66,5.66,0,0,1,.18-1.36,14,14,0,0,1,.53-1.58l.47-.81.69-1.34c.33-.64.65-1.27.93-1.92a17.55,17.55,0,0,0,.57-1.8l.47-1.77.24-1.61a53.38,53.38,0,0,0,.57-6.18c.27-7.86,0-15.29-.06-22.73s-.11-14.83.09-22.21q.51-22.19,2.92-44.25a104.88,104.88,0,0,1,12.42-40.5,98.67,98.67,0,0,1,12.31-17.33,96.84,96.84,0,0,1,7.44-7.59c.07,0,.11-.11.18-.16Z"/><path class="cls-9" d="M123.72,411.47c-14.13,5.72-23.2,22.45-23.81,23.59a32,32,0,0,1,1-3.76c3.43-11.24,11.55-19.24,15.26-22.44,1.75.62,3.5,1.21,5.31,1.8C122.21,410.91,123,411.18,123.72,411.47Z"/><path class="cls-9" d="M270.2,595.68s-3.35,11-11.81,16.79a8.3,8.3,0,0,1,1.48-2.94A35.61,35.61,0,0,0,265.31,595c.38-2.43.57-4.81.71-7.15s.27-4.4.42-6.61c1.15-17.71,3-35.34,1.62-53.25C268.06,528,276.16,569.9,270.2,595.68Z"/><path class="cls-9" d="M376.61,589.77a1,1,0,0,1-.15-.8,44.54,44.54,0,0,0-4.94-34c1.47-.83,2.9-1.65,4.32-2.55a31,31,0,0,0,1.65,8.83C379.93,569,380.64,581.08,376.61,589.77Z"/><path class="cls-9" d="M373.84,417.14a114.1,114.1,0,0,0,19.85-17.39c6.22-7.11,11.49-15.71,13.59-25.54s.51-20.31-3.52-29.11a75.88,75.88,0,0,0-10.85-16.92C395.06,329.9,453.17,377.58,373.84,417.14Z"/><path d="M667.38,176.45A95.94,95.94,0,0,1,678,170a45.78,45.78,0,0,1,20.15-5,31.45,31.45,0,0,1,13,2.58,18.67,18.67,0,0,1,8.55,7.06q3.31,5.37,3.32,19.68l-.13,10.11-.14,13.37L723.3,241H688.42l.27-41.95-.4-21.44c-.46-2.35-2.12-3.53-5-3.53a16.53,16.53,0,0,0-7.14,1.93,46.54,46.54,0,0,0-8.76,5.87l-.13,17,.23,29.52.17,12.56H632.77l.14-28.64V179.71l-.21-28.23.07-3.12h34.61v1.9l.07,11.6-.07,7.2Z"/><path d="M758.46,203.4h-4.28a42.11,42.11,0,0,0-2.92-10.23q-1.62-3.31-9.84-15.77-5.08-7.65-5.09-14.63,0-7.85,5.29-12.18,6-5,15.45-5,9.69,0,15.58,5.62a15.21,15.21,0,0,1,5,11.64,20.24,20.24,0,0,1-1.32,7.35,46.89,46.89,0,0,1-4.7,8.5q-6.5,9.6-8.93,14.14A55,55,0,0,0,758.46,203.4Zm-2.24,9.43q9.09,0,14.89,4.29a13.41,13.41,0,0,1,.41,21.8Q766.14,243,757.37,243q-9.09,0-14.86-4.18a12.78,12.78,0,0,1-5.77-10.78A13.26,13.26,0,0,1,742.31,217Q747.67,212.9,756.22,212.83Z"/><path d="M666.64,331.84a38.73,38.73,0,0,1,20.7,6,36.47,36.47,0,0,1,13.77,15.2,39.89,39.89,0,0,1,4.21,18,37,37,0,0,1-2.48,13.1,39.63,39.63,0,0,1-6.75,11.67,37.59,37.59,0,0,1-14.59,10.52,38.13,38.13,0,0,1-14.73,2.92,37.74,37.74,0,0,1-23.07-7.6,37.15,37.15,0,0,1-12.15-15,39.53,39.53,0,0,1-3.46-16.35,36.23,36.23,0,0,1,12.21-28A39.06,39.06,0,0,1,666.64,331.84Zm-2,4.34-.21,68.48c1.41.09,2.38.13,2.92.13a34,34,0,0,0,18-5.29,32.73,32.73,0,0,0,12.42-13.73,34,34,0,0,0,3.26-14.94q0-16.38-12.08-26.56-9.76-8.22-21.24-8.22C667.16,336.05,666.12,336.09,664.67,336.18Z"/><path d="M681.44,529.37v-8.28q-.08-8.62-.27-10.59a7.89,7.89,0,0,0-1.23-3.53q-2.45-3.8-11.42-3.8-13.86,0-21.41,8.69-3.06,3.52-5.16,3.53a3.87,3.87,0,0,1-2.72-1.09,3.35,3.35,0,0,1-1.16-2.51q0-4.28,10.12-8.82,9.63-4.35,24.9-4.35,25.11,0,35.43,7.6a15.48,15.48,0,0,1,5.83,7.47q1.36,4.14,1.36,14.59v26.94a55.07,55.07,0,0,0,.44,11.23,26,26,0,0,0,3.23,8.11h-38v-7.12A53.87,53.87,0,0,1,669,573.89a36.43,36.43,0,0,1-12.12,2.17,29.16,29.16,0,0,1-18-5.91q-10.25-7.73-10.25-20.08a21.6,21.6,0,0,1,8.29-17.65q9.65-7.93,23.92-7.94a45.56,45.56,0,0,1,10.33,1A50.76,50.76,0,0,1,681.44,529.37Zm0,4.88Q672.89,530,668.21,530q-3.94,0-5.16,3.12c-.46,1.13-.68,4.41-.68,9.84v16.22a44.4,44.4,0,0,0,.34,6.51q.67,3.14,4.61,3.13a16.23,16.23,0,0,0,7-1.87,27.4,27.4,0,0,0,7-4.92Z"/><path d="M768.51,476.57l-.75,21.92-.06,2.1c3.93,0,7.51-.16,10.72-.47.54-.05,1-.07,1.42-.07,2,0,3,.92,3,2.75s-1,2.54-3.12,2.54c-.64,0-1.43,0-2.38-.13-3.57-.28-6.13-.41-7.67-.41h-2L767.63,518l.23,26.36.18,14.1a21.82,21.82,0,0,0,.75,6.92,2.64,2.64,0,0,0,2.59,2q2.46,0,5.25-2.85a20.48,20.48,0,0,0,4.3-7q1.43-3.93,3.39-3.93c1.54,0,2.31.86,2.31,2.57s-.77,3.86-2.31,6.42a28,28,0,0,1-5.56,6.68q-8,7-20.77,7-12,0-18.59-7.25a20,20,0,0,1-4.69-8.17,47.58,47.58,0,0,1-1.29-12.51v-5.09l.07-14.3V504.6c-.63-.05-1.08-.07-1.36-.07-.45,0-1.35,0-2.71.13-1.13.09-2.08.14-2.85.14q-3.33,0-3.33-2.55c0-1.65,1.07-2.47,3.19-2.47,1,0,1.7,0,2.11.06l5,.34v-7.66A216.18,216.18,0,0,0,768.51,476.57Z"/><path d="M557.36,420.85q-3.15-.09-7.22-.38t-8.4-1q-4.34-.69-8.66-1.67a42.39,42.39,0,0,1-8-2.62q-10.08-4.32-9.82-14.37l2.3-90.25a8.72,8.72,0,0,1,2.29-6.23,15.2,15.2,0,0,1,5.92-3.43,75.36,75.36,0,0,1,16.94-3.14q8.91-.64,15.94-.47a88,88,0,0,1,26.1,4.34,53.21,53.21,0,0,1,19.89,11.82A50.93,50.93,0,0,1,617.2,333q4.34,11.72,3.93,27.56-.39,15.46-5.13,26.84a51,51,0,0,1-33.18,30.2A79.36,79.36,0,0,1,557.36,420.85Zm-9.65-28.49q2,.45,5,.81c2,.24,3.82.39,5.55.43A33.34,33.34,0,0,0,569.86,392a23.06,23.06,0,0,0,9.22-5.76,27.93,27.93,0,0,0,6.19-10.38,50.21,50.21,0,0,0,2.53-15.5q.44-17.4-7.11-26.39t-20.51-9.32q-2.59-.06-5.28.06c-1.79.08-3.62.23-5.48.44Z"/><ellipse class="cls-3" cx="571.54" cy="305.22" rx="1.7" ry="1.27" transform="translate(251.85 868.79) rotate(-88.54)"/><path class="cls-10" d="M572.34,312.17a3.22,3.22,0,0,1,1.43,3.93,4.7,4.7,0,0,1-3.3,2.64,5.22,5.22,0,0,1-3.69-.31,3.7,3.7,0,0,1-.58-6.36,2.9,2.9,0,0,1,1.64-.59A10,10,0,0,1,572.34,312.17Z"/><path class="cls-3" d="M541.38,304.45c0,.94-.61,1.69-1.31,1.67a1.52,1.52,0,0,1-1.22-1.73c0-.94.61-1.69,1.31-1.67S541.41,303.51,541.38,304.45Z"/><path class="cls-10" d="M540.91,311.37a3.23,3.23,0,0,1,1.44,3.93,4.75,4.75,0,0,1-3.3,2.64,5.22,5.22,0,0,1-3.69-.31,3.7,3.7,0,0,1-.58-6.36,2.83,2.83,0,0,1,1.64-.59A9.79,9.79,0,0,1,540.91,311.37Z"/><path class="cls-2" d="M535.6,298.67a52.75,52.75,0,0,0-22.73,6.25c-6.68,3.36-12.66,9-14.87,16.38s.24,16.5,6.72,20.23a13.58,13.58,0,0,0,16.9-3.26c4.58-5.64,4.25-13.81,4.62-21.18s2.68-16,9.36-18.42"/><path class="cls-2" d="M577,299.72a52.72,52.72,0,0,1,22.39,7.4c6.49,3.7,12.18,9.64,14,17.12s-1.08,16.46-7.74,19.86A13.57,13.57,0,0,1,588.9,340c-4.28-5.87-3.53-14-3.53-21.39s-1.86-16.1-8.41-18.88"/><path class="cls-11" d="M550.89,307.36c-1.43,2.18.29,5.71,2.82,5.79s4.46-3.33,3.19-5.61a3.69,3.69,0,0,0-6.25.13"/><path class="cls-12" d="M553.44,311.72c-.14,3.34-3.57,6.09-6.69,5.37"/><path class="cls-12" d="M553.24,310.7c.74,4.3,5.36,7.38,9.41,6.28"/><path class="cls-12" d="M554.06,312c-.12,2.14-.72,6.63-.34,8.73s2.16,4.18,4.17,3.78a3.84,3.84,0,0,0,2.67-2.82,11.85,11.85,0,0,0,.22-4.12"/><path class="cls-12" d="M556.74,315.9l-.13,4.77"/><path class="cls-2" d="M547.23,468.19,530.91,461a198.6,198.6,0,0,0,7.18,22.32"/><path class="cls-2" d="M555,466.47a159,159,0,0,1,5.73-17.15l7.86,18.92"/><path class="cls-2" d="M593.64,556.44c2.39,3.73,7.44,4.55,11.34,2.85,4.67-2,6.86-7.35,7.22-12.14.49-6.6-2.21-12.88-3.27-19.29-.55-3.38-.75-7.1.48-10.36.93-2.46,2.94-5.08,5.75-5.35,3.07-.3,5.66,2.52,8.76,1.82,2.14-.49,4.23-2.57,3.05-4.83-.41-.78-1.59-.09-1.18.7.63,1.21-.67,2.24-1.7,2.64-1.35.51-2.7,0-4-.51-2.17-.84-4.31-1.68-6.62-.83-4.49,1.65-6.19,6.92-6.33,11.26-.21,6,1.94,11.61,3.08,17.37,1,5.22,1.13,11.28-2.44,15.62-3.11,3.79-10,5-13,.36-.47-.75-1.66-.06-1.18.69Z"/><path d="M575.9,489.71q-14.14-.66-22.08,7.62t-8.68,24.08q-.75,16,7.2,25t22.1,9.69a35.56,35.56,0,0,0,12.86-1.43,86.32,86.32,0,0,0,10.23-4.12,18.26,18.26,0,0,1,4.58,6.38,18.93,18.93,0,0,1,1.35,8.44q-.35,7.54-9,12.38t-25.69,4a75.22,75.22,0,0,1-23-4.57,51.7,51.7,0,0,1-18.41-11.64,50.57,50.57,0,0,1-11.91-19q-4.17-11.32-3.44-26.76.67-14.34,5.69-25.05a53.68,53.68,0,0,1,13.17-17.89,51.88,51.88,0,0,1,18.81-10.53,64.35,64.35,0,0,1,22.6-2.81q16.89.8,25.92,6.74t8.61,14.58a14.31,14.31,0,0,1-2.78,8.16,19.73,19.73,0,0,1-5.76,5.25,60.23,60.23,0,0,0-10-5.81A33.41,33.41,0,0,0,575.9,489.71Z"/><path class="cls-3" d="M538.77,484.47a1.3,1.3,0,1,0,.66-1.94A1.48,1.48,0,0,0,538.77,484.47Z"/><path class="cls-13" d="M541.18,490.62a3,3,0,0,0-.24,4,4.69,4.69,0,0,0,3.88,1.41,5.37,5.37,0,0,0,3.4-1.39,3.73,3.73,0,0,0,1.14-3.41,3.61,3.61,0,0,0-2.4-2.53,2.88,2.88,0,0,0-1.72-.05A10.11,10.11,0,0,0,541.18,490.62Z"/><path class="cls-3" d="M569.7,470.6a1.3,1.3,0,1,0,.67-1.94A1.48,1.48,0,0,0,569.7,470.6Z"/><path class="cls-13" d="M572.12,476.74a3,3,0,0,0-.24,4,4.67,4.67,0,0,0,3.88,1.41,5.42,5.42,0,0,0,3.4-1.39,3.75,3.75,0,0,0,1.13-3.41,3.63,3.63,0,0,0-2.39-2.54,2.92,2.92,0,0,0-1.73,0A10.1,10.1,0,0,0,572.12,476.74Z"/><polygon class="cls-14" points="557.32 482.95 561.43 481.51 560.59 485.03 557.32 482.95"/><path class="cls-15" d="M554.65,487.83s8.39,2.35,5.06-4.61c0,0,2.61,7,6.51.31"/><path d="M760.24,393.67c-3,0-7,.18-12.06.45l-5.45.35q-4.68.3-6.22.3l-.37,0-1,0q-6.64,0-6.64-4.07c0-2,1.79-3.94,5.39-5.91l1.25.17.26-.17a90.48,90.48,0,0,0,12.79,1.32h.43q12.64,0,21.58-7.17t8.94-17.29q0-15.37-17.81-23.42c0-3.55.26-8.23,2.45-8.08a3.51,3.51,0,0,1,.69.14,3.61,3.61,0,0,1,1.26-.14c.73,0,1.82.85,3.28,1.54a17.62,17.62,0,0,0,4.68,1.51c3.59-.54,5-2.88,5-7.49,0-6.48-2.2-6.87-9.08-7.22-10,.35-15,4.51-15,13.9a29,29,0,0,0,.39,4.06l-.73-.08v.08c-2.24-.3-4.26-.53-6.08-.69-2-.16-3.87-.25-5.46-.26q-12.62,0-21.16,7.49A23.69,23.69,0,0,0,713,361.59q0,14.55,14.18,20.61Q711,390.48,711,401.34q0,8.73,13.55,12.49-12.7,2.88-12.71,10.94,0,13.92,31.15,14c1.78,0,3.51,0,5.18-.09q37.17-1.41,37.17-24.59Q785.35,393.8,760.24,393.67Zm-14.38-50.85h.51a10.26,10.26,0,0,1,4.3.88q8.3,3.36,8.31,19.81,0,12.42-8.31,14.76a12.82,12.82,0,0,1-3.84.54h-.45q-13.77,0-13.77-17.22Q732.61,342.81,745.86,342.82Zm3.88,88.5c-1.3.06-2.65.1-4.1.1h-.48q-20.58,0-20.58-8.27t21.24-8.35h.42c1.23,0,2.38,0,3.5.07,12.87.39,19.33,2.81,19.33,7.27C769.07,427.7,762.61,430.75,749.74,431.32Z"/><path d="M623.66,192.94c5,11-.68,24.6-9.5,31.87a13.41,13.41,0,0,1-4.44,2.44,15.48,15.48,0,0,1-2.88.61c-2.46.29-5.05.58-6.59,2.76-11.16,15.81-32.47,24.58-50.2,14a26,26,0,0,1-3.92-2.83c-4.92-4.38-9.76-9.73-9.79-9.75-5.23-5.78-9.42-12.41-13.45-19.05-3.76-6.23-8.21-12.54-9.59-19.82-1.64-8.69-1.92-7.77,0-17.37,2.05-10.23,10.09-21,20.23-24.38,10.42-3.43,7.63-2.7,14.9-4.34.56-.13.77-1.19.92-1.63a18.14,18.14,0,0,1,7.39-8.81,28.07,28.07,0,0,1,8.06-3.75,21.9,21.9,0,0,1,12.89.43,26.5,26.5,0,0,1,9,4.85c3.06,2.64,4.37,6.07,6.49,9.38,1.19,1.87,2.41,1.23,5.29,2.73,8.23,4.29,8.57,4.54,13.71,10.57,5,5.87,4.92,15.56,4.25,23.71,0,.3,2.35,2.16,2.61,2.45C620.59,188.8,622.7,190.79,623.66,192.94Z"/><circle class="cls-2" cx="570.11" cy="155.95" r="8.67"/><circle class="cls-2" cx="593.7" cy="175.51" r="8.67"/><circle class="cls-2" cx="603.39" cy="204.96" r="8.67"/><path class="cls-2" d="M571.67,186.53c4.85,5.9,8.25,15.74,6.89,23.38-1.1,6.19-6.23,10.59-9.06,12.92s-6.44,2.29-10.42.66c-5-2.07-10.59-6.77-15.51-12.74-8.78-10.66-10.78-23.52-4.46-28.72a19.53,19.53,0,0,1,9.34-4.39C556.15,176.59,565.81,179.41,571.67,186.53Z"/></svg>